<?xml version="1.0" standalone="no"?>
<!DOCTYPE svg PUBLIC "-//W3C//DTD SVG 1.1//EN" "http://www.w3.org/Graphics/SVG/1.1/DTD/svg11.dtd" >
<svg xmlns="http://www.w3.org/2000/svg" xmlns:xlink="http://www.w3.org/1999/xlink" version="1.1">
<metadata>
Created by FontForge 20230101 at Thu Mar  1 08:26:04 2001
 By Unknown
Copr. 1993, Tobias Frere-Jones. Designed by Tobias Frere-Jones. Produced by The Font Bureau, Inc.
</metadata>
<defs>
<font id="Interstate" horiz-adv-x="570" >
  <font-face 
    font-family="Interstate"
    font-weight="400"
    font-stretch="normal"
    units-per-em="1000"
    panose-1="0 0 4 0 0 0 0 0 0 0"
    ascent="800"
    descent="-200"
    x-height="525"
    cap-height="700"
    bbox="-56 -193 1333 912"
    underline-thickness="20"
    underline-position="-143"
    unicode-range="U+0020-F002"
  />
<missing-glyph horiz-adv-x="500" 
d="M63 0v800h375v-800h-375zM125 63h250v675h-250v-675z" />
    <glyph glyph-name=".notdef" horiz-adv-x="500" 
d="M63 0v800h375v-800h-375zM125 63h250v675h-250v-675z" />
    <glyph glyph-name=".null" horiz-adv-x="0" 
 />
    <glyph glyph-name="nonmarkingreturn" horiz-adv-x="270" 
 />
    <glyph glyph-name="space" unicode=" " horiz-adv-x="270" 
 />
    <glyph glyph-name="exclam" unicode="!" horiz-adv-x="298" 
d="M202 389l-20 -187h-66l-20 187v311h106v-311zM224 64q0 -31 -22 -53t-53 -22t-53 22t-22 53t22 53.5t53 22.5t53 -22.5t22 -53.5z" />
    <glyph glyph-name="quotedbl" unicode="&#x22;" horiz-adv-x="490" 
d="M418 700l-25 -327h-75l-25 327h125zM197 700l-25 -327h-75l-25 327h125z" />
    <glyph glyph-name="numbersign" unicode="#" horiz-adv-x="700" 
d="M650 160h-120v-160h-98v160h-164v-160h-98v160h-120v95h120v190h-120v95h120v160h98v-160h164v160h98v-160h120v-95h-120v-190h120v-95zM432 255v190h-164v-190h164z" />
    <glyph glyph-name="dollar" unicode="$" horiz-adv-x="616" 
d="M554 206q0 -178 -198 -204v-102h-105v102q-132 18 -205 111l80 68q75 -81 177 -81q144 0 144 95q0 40 -34 65q-32 22 -122 49q-122 36 -165 72q-54 45 -54 130q0 76 50 125t129 61v103h105v-103q100 -16 176 -92l-73 -74q-79 69 -164 69q-116 0 -116 -80q0 -36 30 -57.5
t121 -49.5q120 -36 165 -72q59 -47 59 -135z" />
    <glyph glyph-name="percent" unicode="%" horiz-adv-x="979" 
d="M929 207q0 -95 -49 -156.5t-125 -61.5t-123.5 60t-47.5 156q0 97 47.5 158t125.5 61q79 0 125.5 -60.5t46.5 -156.5zM754 700l-429 -700h-101l429 700h101zM395 494q0 -95 -49 -156.5t-125 -61.5t-123.5 60t-47.5 156q0 97 47.5 158t125.5 61q79 0 125.5 -60.5
t46.5 -156.5zM839 205q0 61 -22 96.5t-61 35.5q-82 0 -82 -130q0 -61 22 -96.5t61 -35.5t61 38q21 35 21 92zM305 492q0 61 -22 96.5t-61 35.5q-82 0 -82 -130q0 -61 22 -96.5t61 -35.5t61 38q21 35 21 92z" />
    <glyph glyph-name="ampersand" unicode="&#x26;" horiz-adv-x="680" 
d="M650 0h-120l-55 65q-86 -76 -197 -76q-109 0 -166 53q-54 49 -54 137q0 69 37 119q34 45 110 88l-13 16q-66 81 -66 148q0 75 52 118t142 43q94 0 188 -66l-49 -84q-73 53 -148 53q-80 0 -80 -62q0 -40 36 -84l205 -251q30 51 48 116l95 -27q-25 -96 -76 -169zM413 139
l-148 176q-102 -57 -102 -131q0 -44 29 -70q32 -29 90 -29q74 0 131 54z" />
    <glyph glyph-name="quoteright" unicode="&#x2019;" horiz-adv-x="265" 
d="M210 700l-76 -251h-69l14 251h131z" />
    <glyph glyph-name="parenleft" unicode="(" horiz-adv-x="353" 
d="M305 -65l-52 -45q-195 185 -195 410q0 231 195 416l52 -45q-138 -154 -138 -366q0 -214 138 -370z" />
    <glyph glyph-name="parenright" unicode=")" horiz-adv-x="353" 
d="M295 307q0 -231 -195 -416l-52 45q138 154 138 366q0 214 -138 370l52 45q195 -185 195 -410z" />
    <glyph glyph-name="asterisk" unicode="*" horiz-adv-x="500" 
d="M448 436l-45 -76l-124 89l16 -153h-88l15 154l-125 -90l-45 76l140 63l-139 63l45 76l124 -91l-15 153h88l-16 -151l123 89l45 -76l-142 -63z" />
    <glyph glyph-name="plus" unicode="+" horiz-adv-x="593" 
d="M538 294h-190v-195h-103v195h-190v100h190v195h103v-195h190v-100z" />
    <glyph glyph-name="comma" unicode="," horiz-adv-x="254" 
d="M201 139l-75 -265h-71l15 265h131z" />
    <glyph glyph-name="hyphen" unicode="-" horiz-adv-x="360" 
d="M305 315h-250v102h250v-102z" />
    <glyph glyph-name="hyphen" unicode="&#x2010;" horiz-adv-x="360" 
d="M305 315h-250v102h250v-102z" />
    <glyph glyph-name="hyphen" unicode="&#x2010;" horiz-adv-x="360" 
d="M305 315h-250v102h250v-102z" />
    <glyph glyph-name="period" unicode="." horiz-adv-x="254" 
d="M206 68q0 -32 -23.5 -55.5t-55.5 -23.5t-55.5 23.5t-23.5 55.5t23.5 56t55.5 24t55.5 -24t23.5 -56z" />
    <glyph glyph-name="slash" unicode="/" horiz-adv-x="446" 
d="M430 790l-311 -880h-103l311 880h103z" />
    <glyph glyph-name="zero" unicode="0" horiz-adv-x="662" 
d="M607 351q0 -164 -71 -260q-74 -102 -206 -102t-205 101q-70 95 -70 259t71 261q74 101 206 101t205 -100q70 -96 70 -260zM501 349q0 118 -39 185q-44 75 -132 75q-169 0 -169 -258q0 -118 40 -185q44 -75 131 -75q169 0 169 258z" />
    <glyph glyph-name="one" unicode="1" horiz-adv-x="342" 
d="M248 0h-105v536h-124v73q127 9 144 91h85v-700z" />
    <glyph glyph-name="two" unicode="2" horiz-adv-x="633" 
d="M550 0h-502q5 139 85 235q57 68 184 143q70 41 94.5 70t24.5 66q0 92 -134 92q-96 0 -169 -70l-67 80q101 95 239 95q112 0 173 -47q65 -50 65 -144q0 -77 -42 -127q-35 -41 -133.5 -99.5t-137.5 -99t-51 -92.5h371v-102z" />
    <glyph glyph-name="three" unicode="3" horiz-adv-x="612" 
d="M541 208q0 -106 -69 -162.5t-193 -56.5q-76 0 -146 31.5t-106 84.5l80 68q64 -80 172 -80q153 0 153 115q0 52 -36 80q-34 25 -91 25h-65v102h64q47 0 73 27t26 69q0 37 -27 63q-35 33 -105 33q-76 0 -138 -65l-78 74q92 95 218 95q103 0 169 -49q70 -52 70 -141
q0 -105 -85 -153q114 -33 114 -160z" />
    <glyph glyph-name="four" unicode="4" horiz-adv-x="667" 
d="M615 157h-93v-157h-102v154h-379v100l361 446h120v-450h93v-93zM423 582q-25 -34 -63 -83l-135 -172q-37 -47 -66 -78q11 0 52 1h61h148v204q0 22 1.5 69.5t1.5 58.5z" />
    <glyph glyph-name="five" unicode="5" horiz-adv-x="636" 
d="M574 238q0 -124 -77 -189q-72 -60 -199 -60q-136 0 -244 69l51 87q97 -54 196 -54q81 0 123.5 37t42.5 105q0 125 -142 125q-76 0 -135 -44l-112 44l24 342h430v-100h-336l-14 -177q64 36 151 36q116 0 181 -63q60 -59 60 -158z" />
    <glyph glyph-name="six" unicode="6" horiz-adv-x="636" 
d="M592 222q0 -111 -79 -174q-75 -59 -195 -59q-118 0 -187 65q-76 73 -76 214q0 167 93 286q115 150 341 157v-99q-249 -11 -316 -227q70 56 184 56q101 0 165 -54q70 -58 70 -165zM486 220q0 122 -159 122q-165 0 -165 -123q0 -54 41 -89q44 -39 119 -39q78 0 121 34.5
t43 94.5z" />
    <glyph glyph-name="seven" unicode="7" horiz-adv-x="594" 
d="M513 594q-226 -253 -233 -594h-106q5 325 217 598h-367v102h489v-106z" />
    <glyph glyph-name="eight" unicode="8" horiz-adv-x="670" 
d="M610 204q0 -102 -74.5 -158.5t-202.5 -56.5t-200.5 56t-72.5 159q0 128 124 174q-49 20 -74 63q-20 34 -20 72q0 97 72 150q65 48 174 48q102 0 169 -47q75 -54 75 -149q0 -38 -20 -73q-25 -44 -74 -64q124 -46 124 -174zM474 512q0 44 -32 71q-37 32 -108 32
q-138 0 -138 -99q0 -43 38 -69.5t102 -26.5q65 0 103 27q35 25 35 65zM504 201q0 120 -170 120q-168 0 -168 -115q0 -56 44.5 -88.5t124.5 -32.5q82 0 127 33q42 30 42 83z" />
    <glyph glyph-name="nine" unicode="9" horiz-adv-x="636" 
d="M581 432q0 -167 -92 -286q-116 -150 -342 -157v99q249 11 316 227q-70 -56 -184 -56q-101 0 -165 54q-70 58 -70 165q0 111 79 174q75 59 195 59q118 0 187 -65q76 -73 76 -214zM474 481q0 54 -41 90q-44 38 -119 38q-78 0 -121 -34.5t-43 -94.5q0 -122 159 -122
q165 0 165 123z" />
    <glyph glyph-name="colon" unicode=":" horiz-adv-x="254" 
d="M206 456q0 -32 -23.5 -55.5t-55.5 -23.5t-55.5 23.5t-23.5 55.5t23.5 56t55.5 24t55.5 -24t23.5 -56zM206 68q0 -32 -23.5 -55.5t-55.5 -23.5t-55.5 23.5t-23.5 55.5t23.5 56t55.5 24t55.5 -24t23.5 -56z" />
    <glyph glyph-name="semicolon" unicode=";" horiz-adv-x="254" 
d="M206 456q0 -32 -23.5 -55.5t-55.5 -23.5t-55.5 23.5t-23.5 55.5t23.5 56t55.5 24t55.5 -24t23.5 -56zM194 139l-75 -265h-71l15 265h131z" />
    <glyph glyph-name="less" unicode="&#x3c;" horiz-adv-x="414" 
d="M348 47l-291 253v88l291 253v-130l-194 -166l194 -167v-131z" />
    <glyph glyph-name="equal" unicode="=" horiz-adv-x="593" 
d="M513 409h-433v100h433v-100zM513 179h-433v100h433v-100z" />
    <glyph glyph-name="greater" unicode="&#x3e;" horiz-adv-x="414" 
d="M357 300l-291 -253v130l194 166l-194 167v131l291 -253v-88z" />
    <glyph glyph-name="question" unicode="?" horiz-adv-x="571" 
d="M517 525q0 -69 -33 -112q-28 -37 -96 -75q-49 -27 -63 -56q-12 -23 -12 -80h-109q0 89 25 131t107 87q40 22 57 43t17 56q0 88 -135 88q-93 0 -174 -78l-67 79q103 103 244 103q109 0 173 -47q66 -50 66 -139zM333 64q0 -31 -22 -53t-53 -22t-53 22t-22 53t22 53.5
t53 22.5t53 -22.5t22 -53.5z" />
    <glyph glyph-name="at" unicode="@" horiz-adv-x="836" 
d="M779 360q0 -206 -152 -206q-76 0 -107 62q-19 -25 -56 -43.5t-72 -18.5q-63 0 -105 34q-47 37 -47 103q0 61 48 96q44 31 113 31q55 0 99 -26v51q0 59 -93 59q-58 0 -97 -24l-28 49q57 34 129 34q156 0 156 -120v-168q0 -60 66 -60q88 0 88 148q0 121 -87 207t-216 86
q-131 0 -217 -86t-86 -217t86 -217.5t217 -86.5q71 0 130 29l24 -53q-75 -34 -154 -34q-157 0 -259 102t-102 259t102 259t259 102t259 -102.5t102 -248.5zM500 270v61q-40 30 -103 30q-92 0 -92 -68q0 -79 97 -79q28 0 56.5 16t41.5 40z" />
    <glyph glyph-name="A" unicode="A" horiz-adv-x="712" 
d="M665 0h-112l-59 166h-280l-58 -166h-109l252 700h111zM462 260l-56 161q-43 124 -53 161q-18 -68 -51 -162l-56 -160h216z" />
    <glyph glyph-name="B" unicode="B" horiz-adv-x="675" 
d="M609 215q0 -106 -62 -160.5t-178 -54.5h-278v700h288q93 0 147 -47.5t54 -134.5q0 -96 -89 -140q48 -13 80 -51q38 -45 38 -112zM475 512q0 92 -97 92h-188v-181h188q49 0 74 27q23 24 23 62zM504 212q0 54 -32.5 85t-91.5 31h-190v-232h187q127 0 127 116z" />
    <glyph glyph-name="C" unicode="C" horiz-adv-x="655" 
d="M595 123q-78 -134 -241 -134q-134 0 -215 100t-81 261t81 261t215 100q164 0 238 -131l-93 -58q-28 45 -59 63q-34 21 -86 21q-90 0 -139 -68.5t-49 -187.5t49 -187.5t139 -68.5q99 0 154 87z" />
    <glyph glyph-name="D" unicode="D" horiz-adv-x="679" 
d="M623 350q0 -175 -102 -268q-91 -82 -239 -82h-191v700h191q151 0 241 -82q100 -92 100 -268zM516 350q0 248 -234 248h-86v-496h86q234 0 234 248z" />
    <glyph glyph-name="E" unicode="E" horiz-adv-x="615" 
d="M557 0h-466v700h451v-102h-346v-173h201v-102h-201v-221h361v-102z" />
    <glyph glyph-name="F" unicode="F" horiz-adv-x="582" 
d="M542 597h-346v-183h201v-103h-201v-311h-105v700h451v-103z" />
    <glyph glyph-name="G" unicode="G" horiz-adv-x="678" 
d="M620 274q0 -133 -73.5 -209t-192.5 -76q-134 0 -215 100t-81 261t81 261t215 100q164 0 238 -131l-92 -57q-28 44 -59 63q-34 20 -87 20q-90 0 -139.5 -68.5t-49.5 -187.5t49.5 -187.5t139.5 -68.5q80 0 122 48q37 42 37 109v3h-114v101h221v-81z" />
    <glyph glyph-name="H" unicode="H" horiz-adv-x="714" 
d="M623 0h-105v314h-322v-314h-105v700h105v-283h322v283h105v-700z" />
    <glyph glyph-name="I" unicode="I" horiz-adv-x="297" 
d="M201 0h-105v700h105v-700z" />
    <glyph glyph-name="J" unicode="J" horiz-adv-x="603" 
d="M517 276q0 -287 -249 -287q-188 0 -244 186l102 30q42 -111 145 -111q75 0 108 45t33 145v416h105v-424z" />
    <glyph glyph-name="K" unicode="K" horiz-adv-x="685" 
d="M643 0h-119l-201 359l-130 -157v-202h-102v700h102v-240q0 -80 -2 -124q15 22 81 105l207 259h119l-205 -254z" />
    <glyph glyph-name="L" unicode="L" horiz-adv-x="595" 
d="M545 0h-454v700h105v-597h349v-103z" />
    <glyph glyph-name="M" unicode="M" horiz-adv-x="808" 
d="M717 0h-103v370q0 83 2 123q-14 -35 -45 -110l-170 -394l-168 394q-16 38 -45 110q2 -40 2 -123v-370h-99v700h108l157 -373q20 -45 48 -120q13 37 47 120l154 373h112v-700z" />
    <glyph glyph-name="N" unicode="N" horiz-adv-x="714" 
d="M623 0h-100l-279 439q-20 34 -52 86q0 -11 1 -76v-86v-363h-102v700h107l266 -427q28 -45 58 -99v78q-1 66 -1 87v361h102v-700z" />
    <glyph glyph-name="O" unicode="O" horiz-adv-x="709" 
d="M651 350q0 -161 -81 -261t-216 -100q-134 0 -215 100t-81 261t81 261t215 100q135 0 216 -100t81 -261zM544 350q0 119 -49.5 187.5t-140.5 68.5q-90 0 -139.5 -68.5t-49.5 -187.5t49.5 -187.5t139.5 -68.5q91 0 140.5 68.5t49.5 187.5z" />
    <glyph glyph-name="P" unicode="P" horiz-adv-x="653" 
d="M609 481q0 -105 -63.5 -162.5t-168.5 -57.5h-183v-261h-103v700h293q100 0 161 -55q64 -59 64 -164zM502 481q0 57 -32.5 88.5t-87.5 31.5h-188v-241h188q120 0 120 121z" />
    <glyph glyph-name="Q" unicode="Q" horiz-adv-x="709" 
d="M651 350q0 -185 -108 -287l47 -73l-86 -54l-47 72q-49 -19 -103 -19q-134 0 -215 100t-81 261t81 261t215 100q135 0 216 -100t81 -261zM544 350q0 119 -49.5 187.5t-140.5 68.5q-90 0 -139.5 -68.5t-49.5 -187.5q0 -120 49.5 -189t139.5 -69q24 0 47 5l-51 79l86 54
l51 -80q57 63 57 200z" />
    <glyph glyph-name="R" unicode="R" horiz-adv-x="694" 
d="M623 491q0 -166 -154 -205l143 -286h-121l-139 277h-158v-277h-103v700h307q98 0 158 -50q67 -56 67 -159zM517 488q0 54 -32.5 83.5t-86.5 29.5h-204v-225h204q119 0 119 112z" />
    <glyph glyph-name="S" unicode="S" horiz-adv-x="626" 
d="M560 201q0 -98 -62 -153q-67 -59 -197 -59q-152 0 -249 113l75 73q76 -83 182 -83q145 0 145 102q0 40 -34.5 64.5t-123.5 51.5q-121 36 -165 73q-54 45 -54 133q0 89 66 142t165 53q131 0 229 -95l-74 -75q-66 67 -163 67q-58 0 -87.5 -24.5t-29.5 -62.5
q0 -37 31.5 -59.5t121.5 -49.5q116 -35 164 -74q60 -50 60 -137z" />
    <glyph glyph-name="T" unicode="T" horiz-adv-x="607" 
d="M560 597h-204v-597h-105v597h-204v103h513v-103z" />
    <glyph glyph-name="U" unicode="U" horiz-adv-x="704" 
d="M618 292q0 -147 -69 -225t-200 -78q-129 0 -196 79.5t-67 225.5v406h105v-403q0 -203 160 -203q162 0 162 196v410h105v-408z" />
    <glyph glyph-name="V" unicode="V" horiz-adv-x="688" 
d="M641 700l-240 -700h-111l-243 700h114l146 -446q31 -95 39 -128q8 33 39 129l144 445h112z" />
    <glyph glyph-name="W" unicode="W" horiz-adv-x="863" 
d="M813 700l-143 -700h-106l-109 452q-13 55 -20 93q-8 -46 -20 -93l-114 -452h-104l-143 700h106l84 -442q13 -67 16 -92q9 51 19 91l112 443h90l114 -453q11 -44 17 -81q5 33 14 82l85 452h102z" />
    <glyph glyph-name="X" unicode="X" horiz-adv-x="659" 
d="M614 0h-125l-79 136q-43 74 -77 142q-18 -40 -77 -142l-78 -136h-123l217 361l-203 339h125l64 -113q47 -83 77 -143q35 70 77 143l65 113h123l-203 -338z" />
    <glyph glyph-name="Y" unicode="Y" horiz-adv-x="689" 
d="M648 700l-251 -423v-277h-105v277l-251 423h123l109 -193q43 -76 72 -139q27 59 72 138l110 194h121z" />
    <glyph glyph-name="Z" unicode="Z" horiz-adv-x="664" 
d="M592 0h-532v102l342 413q53 64 79 90q-56 -2 -141 -2h-260v97h512v-102l-338 -413q-50 -61 -79 -90q56 2 141 2h276v-97z" />
    <glyph glyph-name="bracketleft" unicode="[" horiz-adv-x="380" 
d="M317 -110h-222v810h222v-85h-123v-640h123v-85z" />
    <glyph glyph-name="backslash" unicode="\" horiz-adv-x="446" 
d="M430 -90h-103l-311 880h103z" />
    <glyph glyph-name="bracketright" unicode="]" horiz-adv-x="380" 
d="M285 -110h-222v85h123v640h-123v85h222v-810z" />
    <glyph glyph-name="asciicircum" unicode="^" horiz-adv-x="578" 
d="M531 382h-115l-128 209l-128 -209h-113l202 318h80z" />
    <glyph glyph-name="underscore" unicode="_" horiz-adv-x="500" 
d="M500 -177h-500v95h500v-95z" />
    <glyph glyph-name="quoteleft" unicode="&#x2018;" horiz-adv-x="265" 
d="M200 700l-14 -251h-131l76 251h69z" />
    <glyph glyph-name="a" unicode="a" horiz-adv-x="550" 
d="M478 0h-101v52q-63 -63 -144 -63q-73 0 -123 40q-59 48 -59 137q0 84 60 129q55 41 149 41q72 0 117 -20v39q0 89 -99 89q-78 0 -137 -33l-40 78q76 47 180 47q91 0 142 -43q55 -46 55 -133v-360zM377 149v75q-46 23 -120 23q-50 0 -79 -21t-29 -57q0 -87 101 -87
q78 0 127 67z" />
    <glyph glyph-name="b" unicode="b" 
d="M517 254q0 -128 -63 -200q-56 -65 -144 -65q-78 0 -132 60v-49h-102v676l102 53v-254q66 61 137 61q91 0 143 -66q59 -73 59 -216zM414 251q0 190 -118 190q-66 0 -119 -67v-221q51 -69 123 -69q114 0 114 167z" />
    <glyph glyph-name="c" unicode="c" horiz-adv-x="522" 
d="M467 447l-61 -73q-63 64 -128 64q-56 0 -89.5 -47t-33.5 -127t32 -127q34 -50 94 -50q57 0 119 65l66 -65q-77 -98 -188 -98q-98 0 -161 75q-66 76 -66 197q0 127 67 203q64 72 163 72q111 0 186 -89z" />
    <glyph glyph-name="d" unicode="d" 
d="M494 0h-102v50q-66 -61 -137 -61q-91 0 -143 66q-59 73 -59 216q0 128 63 200q56 65 144 65q78 0 132 -60v200l102 53v-729zM393 151v221q-51 69 -123 69q-114 0 -114 -167q0 -190 118 -190q66 0 119 67z" />
    <glyph glyph-name="e" unicode="e" horiz-adv-x="554" 
d="M502 273q0 -14 -3 -47h-347q8 -72 46 -110q35 -34 86 -34q57 0 114 42l61 -66q-72 -69 -181 -69q-96 0 -160 71q-67 76 -67 202q0 131 64 204q62 70 166 70q107 0 166 -78q55 -72 55 -185zM398 311q-9 132 -124 132q-106 0 -120 -132h244z" />
    <glyph glyph-name="f" unicode="f" horiz-adv-x="362" 
d="M322 626q-34 10 -60 10q-48 0 -48 -51v-60h97v-96h-97v-429h-103v429h-68v96h68v69q0 132 133 132q41 0 78 -10v-90z" />
    <glyph glyph-name="g" unicode="g" 
d="M494 50q0 -124 -53 -179q-57 -60 -195 -64l-35 78q108 5 146 40q34 32 34 116v9q-66 -61 -136 -61q-90 0 -143 66q-59 74 -59 216q0 128 63 200q57 65 144 65q79 0 131 -60v49h103v-475zM393 151v221q-51 69 -123 69q-114 0 -114 -167q0 -190 118 -190q66 0 119 67z" />
    <glyph glyph-name="h" unicode="h" 
d="M498 0h-103v297q0 144 -108 144t-108 -134v-307h-103v675l103 54v-254q42 61 132 61q187 0 187 -235v-301z" />
    <glyph glyph-name="i" unicode="i" horiz-adv-x="265" 
d="M199 659q0 -27 -19.5 -46.5t-46.5 -19.5q-28 0 -47.5 19.5t-19.5 46.5q0 28 19.5 47.5t47.5 19.5q27 0 46.5 -19.5t19.5 -47.5zM184 0h-103v525h103v-525z" />
    <glyph glyph-name="j" unicode="j" horiz-adv-x="265" 
d="M199 659q0 -27 -19.5 -46.5t-46.5 -19.5q-28 0 -47.5 19.5t-19.5 46.5q0 28 19.5 47.5t47.5 19.5q27 0 46.5 -19.5t19.5 -47.5zM184 24q0 -102 -35 -147q-37 -48 -143 -70l-35 78q71 20 90.5 44.5t19.5 92.5v503h103v-501z" />
    <glyph glyph-name="k" unicode="k" horiz-adv-x="529" 
d="M487 0h-112l-116 261l-80 -106v-155h-103v675l103 54v-331v-58q-1 -42 -1 -54q20 30 58 86l109 153h117l-133 -176z" />
    <glyph glyph-name="l" unicode="l" horiz-adv-x="265" 
d="M184 0h-103v675l103 54v-729z" />
    <glyph glyph-name="m" unicode="m" horiz-adv-x="861" 
d="M789 0h-103v297q0 78 -24.5 111t-76.5 33q-101 0 -101 -134v-307h-103v297q0 78 -24.5 111t-76.5 33q-101 0 -101 -134v-307h-103v525h103v-50q42 61 125 61q101 0 144 -77q62 77 161 77q180 0 180 -235v-301z" />
    <glyph glyph-name="n" unicode="n" 
d="M498 0h-103v297q0 144 -108 144t-108 -134v-307h-103v525h103v-50q42 61 132 61q187 0 187 -235v-301z" />
    <glyph glyph-name="o" unicode="o" 
d="M519 265q0 -128 -66.5 -202t-170.5 -74q-100 0 -165.5 75.5t-65.5 197.5q0 126 68 202q64 72 166 72t168 -75t66 -196zM415 262q0 81 -36 128.5t-98 47.5q-58 0 -92 -47t-34 -126q0 -85 35.5 -131.5t95.5 -46.5q57 0 94 52q35 49 35 123z" />
    <glyph glyph-name="p" unicode="p" 
d="M517 254q0 -128 -63 -200q-56 -65 -144 -65q-78 0 -132 60v-189l-102 -53v718h102v-50q66 61 137 61q91 0 143 -66q59 -73 59 -216zM414 251q0 190 -118 190q-66 0 -119 -67v-221q51 -69 123 -69q114 0 114 167z" />
    <glyph glyph-name="q" unicode="q" 
d="M494 -140l-102 -53v243q-66 -61 -137 -61q-91 0 -143 66q-59 73 -59 216q0 128 63 200q56 65 144 65q78 0 132 -60v49h102v-665zM393 151v221q-51 69 -123 69q-114 0 -114 -167q0 -190 118 -190q66 0 119 67z" />
    <glyph glyph-name="r" unicode="r" horiz-adv-x="418" 
d="M388 514l-27 -98q-35 19 -79 19q-103 0 -103 -135v-300h-103v525h103v-50q42 61 120 61q56 0 89 -22z" />
    <glyph glyph-name="s" unicode="s" horiz-adv-x="499" 
d="M443 144q0 -81 -60 -121q-51 -34 -137 -34q-110 0 -201 67l47 78q75 -52 153 -52q96 0 96 58q0 27 -33 48q-21 14 -89 40q-86 33 -120 68.5t-34 96.5q0 69 49 106t130 37q98 0 178 -58l-45 -79q-64 45 -136 45t-72 -48q0 -38 97.5 -76t131.5 -68q45 -39 45 -108z" />
    <glyph glyph-name="t" unicode="t" horiz-adv-x="403" 
d="M339 104l-12 -91q-43 -24 -101 -24q-118 0 -118 139v303h-75v94h75v150l101 54v-204h130v-94h-130v-285q0 -36 12.5 -49.5t41.5 -13.5q40 0 76 21z" />
    <glyph glyph-name="u" unicode="u" 
d="M494 0h-103v50q-42 -61 -132 -61q-187 0 -187 235v301h103v-297q0 -144 108 -144t108 134v307h103v-525z" />
    <glyph glyph-name="v" unicode="v" horiz-adv-x="542" 
d="M509 525l-185 -525h-103l-188 525h108l94 -285q29 -89 39 -129q9 44 36 129l90 285h109z" />
    <glyph glyph-name="w" unicode="w" horiz-adv-x="741" 
d="M701 525l-146 -525h-88l-71 265q-18 68 -27 112q-9 -45 -27 -113l-70 -264h-88l-144 525h102l62 -255q17 -70 26 -115q14 59 29 115l70 255h83l71 -256q10 -36 28 -114q8 37 26 115l62 255h102z" />
    <glyph glyph-name="x" unicode="x" horiz-adv-x="531" 
d="M491 0h-122l-50 91q-22 40 -55 106q-14 -31 -57 -107l-51 -90h-116l165 272l-154 253h119l41 -74q41 -74 55 -105q18 35 56 107l40 72h118l-155 -253z" />
    <glyph glyph-name="y" unicode="y" horiz-adv-x="556" 
d="M523 525l-264 -710h-109l76 195l-193 515h113l86 -257q38 -112 46 -153q27 92 47 151l89 259h109z" />
    <glyph glyph-name="z" unicode="z" horiz-adv-x="527" 
d="M463 0h-405v84l225 275q25 30 63 76h-94h-174v90h385v-83l-220 -275q-47 -58 -63 -77h96h187v-90z" />
    <glyph glyph-name="braceleft" unicode="{" horiz-adv-x="425" 
d="M372 -110q-231 0 -231 211v64q0 52 -11.5 69.5t-45.5 17.5h-23v89h23q34 0 45.5 17.5t11.5 69.5v65q0 212 231 212v-76q-71 -7 -99 -37.5t-28 -92.5v-47q0 -71 -16.5 -105.5t-59.5 -50.5q42 -15 59 -49.5t17 -105.5v-47q0 -61 27 -89q29 -31 100 -38v-77z" />
    <glyph glyph-name="bar" unicode="|" horiz-adv-x="295" 
d="M195 -185h-95v985h95v-985z" />
    <glyph glyph-name="braceright" unicode="}" horiz-adv-x="425" 
d="M364 254h-23q-34 0 -45.5 -17.5t-11.5 -69.5v-65q0 -212 -231 -212v76q71 7 100 39q27 29 27 91v47q0 71 16.5 105.5t59.5 50.5q-42 15 -59 49.5t-17 105.5v47q0 61 -28 90.5t-99 36.5v77q231 0 231 -211v-64q0 -52 11.5 -69.5t45.5 -17.5h23v-89z" />
    <glyph glyph-name="asciitilde" unicode="~" horiz-adv-x="562" 
d="M520 424q-55 -141 -153 -141q-46 0 -96 34q-58 40 -83 40q-23 0 -37.5 -15.5t-36.5 -60.5l-72 37q55 141 153 141q47 0 96 -34q58 -40 82 -40q23 0 38 15.5t37 60.5z" />
    <glyph glyph-name="exclamdown" unicode="&#xa1;" horiz-adv-x="527" 
d="M463 0h-405v84l225 275q25 30 63 76h-94h-174v90h385v-83l-220 -275q-47 -58 -63 -77h96h187v-90zM444 755l-117 -160h-120l-117 160h83l95 -88l95 88h81z" />
    <glyph glyph-name="cent" unicode="&#xa2;" horiz-adv-x="522" 
d="M467 541l-61 -70q-63 64 -128 64q-57 0 -90 -47.5t-33 -129.5t33 -131t93 -49q61 0 121 63l64 -60q-61 -78 -137 -93v-99h-105v101q-77 20 -125 91t-48 174q0 107 49 179q46 69 124 89v88h105v-85q80 -16 138 -85z" />
    <glyph glyph-name="sterling" unicode="&#xa3;" horiz-adv-x="637" 
d="M592 616l-66 -79q-72 70 -176 70q-130 0 -130 -83q0 -31 29 -90q19 -39 25 -61h158v-93h-150q-8 -95 -80 -183h376v-97h-492v102q46 48 66 84q23 41 27 94h-93v93h78q-17 37 -34 75q-19 44 -19 79q0 88 64.5 136t176.5 48q136 0 240 -95z" />
    <glyph glyph-name="fraction" unicode="&#x2044;" horiz-adv-x="473" 
d="M529 700l-469 -700h-116l469 700h116z" />
    <glyph glyph-name="yen" unicode="&#xa5;" horiz-adv-x="639" 
d="M608 700l-237 -423v-67h161v-92h-161v-118h-103v118h-161v92h161v63l-237 427h118l95 -180q33 -61 76 -154q12 33 76 153l96 181h116z" />
    <glyph glyph-name="florin" unicode="&#x192;" horiz-adv-x="407" 
d="M357 611q-34 10 -70 10q-32 0 -45 -11t-13 -40v-45h107v-96h-107v-567l-103 -55v622h-78v96h78v54q0 132 143 132q51 0 88 -10v-90z" />
    <glyph glyph-name="section" unicode="&#xa7;" horiz-adv-x="660" 
d="M605 251q0 -94 -109 -158q34 -39 34 -94q0 -71 -52 -116q-55 -47 -146 -47q-111 0 -203 72l63 81q67 -53 150 -53q79 0 79 60q0 35 -54 60q-10 5 -120 42q-89 30 -132 66q-60 51 -60 132q0 94 109 158q-34 39 -34 94q0 71 53.5 117t144.5 46q112 0 203 -72l-63 -81
q-67 53 -150 53q-79 0 -79 -60q0 -35 54 -60q10 -5 120 -42q89 -30 132 -66q60 -51 60 -132zM497 241q0 63 -99 105q-78 28 -156 55q-79 -41 -79 -95q0 -63 99 -105q78 -28 156 -55q79 41 79 95z" />
    <glyph glyph-name="currency" unicode="&#xa4;" horiz-adv-x="760" 
d="M740 346l-167 -126q-11 -6 -17 -2q-12 8 -7 18l23 66h-147v-149l65 23q11 4 19 -7q4 -7 -2 -17l-126 -167l-126 167q-4 7 -4 12q0 3 1 5q9 11 20 7l65 -23v149h-149l23 -66q5 -10 -7 -18q-6 -4 -17 2l-167 126l167 126q12 7 17 3q11 -9 7 -20l-23 -65h149v157l-65 -23
q-11 -4 -20 7q-1 1 -1 4q0 6 4 13l126 167l126 -167q6 -11 2 -17q-8 -11 -19 -7l-65 23v-157h147l-23 65q-4 11 7 20q5 4 17 -3z" />
    <glyph glyph-name="quotesingle" unicode="'" horiz-adv-x="269" 
d="M200 700l-25 -327h-81l-25 327h131z" />
    <glyph glyph-name="quotedblleft" unicode="&#x201c;" horiz-adv-x="500" 
d="M435 700l-14 -251h-131l76 251h69zM200 700l-14 -251h-131l76 251h69z" />
    <glyph glyph-name="guillemotleft" unicode="&#xab;" horiz-adv-x="588" 
d="M548 0h-111l-185 262l185 263h111l-180 -262zM326 0h-111l-185 262l185 263h111l-180 -262z" />
    <glyph glyph-name="guilsinglleft" unicode="&#x2039;" horiz-adv-x="366" 
d="M326 0h-111l-185 262l185 263h111l-180 -262z" />
    <glyph glyph-name="guilsinglright" unicode="&#x203a;" horiz-adv-x="366" 
d="M336 263l-185 -263h-111l180 262l-180 263h111z" />
    <glyph glyph-name="fi" unicode="&#xf001;" horiz-adv-x="620" 
d="M554 659q0 -27 -19.5 -46.5t-46.5 -19.5q-28 0 -47.5 19.5t-19.5 46.5q0 28 19.5 47.5t47.5 19.5q27 0 46.5 -19.5t19.5 -47.5zM539 0h-103v525h103v-525zM322 626q-34 10 -60 10q-48 0 -48 -51v-60h97v-96h-97v-429h-103v429h-68v96h68v69q0 132 133 132q41 0 78 -10
v-90z" />
    <glyph glyph-name="fl" unicode="&#xf002;" horiz-adv-x="620" 
d="M539 0h-103v675l103 54v-729zM322 626q-34 10 -60 10q-48 0 -48 -51v-60h97v-96h-97v-429h-103v429h-68v96h68v69q0 132 133 132q41 0 78 -10v-90z" />
    <glyph glyph-name="endash" unicode="&#x2013;" horiz-adv-x="500" 
d="M465 318h-410v96h410v-96z" />
    <glyph glyph-name="dagger" unicode="&#x2020;" horiz-adv-x="522" 
d="M467 447l-61 -73q-63 64 -128 64q-56 0 -89.5 -47t-33.5 -127t32 -127q34 -50 94 -50q57 0 119 65l66 -65q-77 -98 -188 -98q-98 0 -161 75q-66 76 -66 197q0 127 67 203q64 72 163 72q111 0 186 -89zM476 755l-165 -160h-82l107 160h140z" />
    <glyph glyph-name="daggerdbl" unicode="&#x2021;" horiz-adv-x="655" 
d="M595 123q-78 -134 -241 -134q-134 0 -215 100t-81 261t81 261t215 100q164 0 238 -131l-93 -58q-28 45 -59 63q-34 21 -86 21q-90 0 -139 -68.5t-49 -187.5t49 -187.5t139 -68.5q99 0 154 87zM552 905l-165 -160h-82l107 160h140z" />
    <glyph glyph-name="periodcentered" unicode="&#xb7;" horiz-adv-x="254" 
d="M206 367q0 -32 -23.5 -55.5t-55.5 -23.5t-55.5 23.5t-23.5 55.5t23.5 56t55.5 24t55.5 -24t23.5 -56z" />
    <glyph glyph-name="periodcentered" unicode="&#x2219;" horiz-adv-x="254" 
d="M206 367q0 -32 -23.5 -55.5t-55.5 -23.5t-55.5 23.5t-23.5 55.5t23.5 56t55.5 24t55.5 -24t23.5 -56z" />
    <glyph glyph-name="periodcentered" unicode="&#x2219;" horiz-adv-x="254" 
d="M206 367q0 -32 -23.5 -55.5t-55.5 -23.5t-55.5 23.5t-23.5 55.5t23.5 56t55.5 24t55.5 -24t23.5 -56z" />
    <glyph glyph-name="paragraph" unicode="&#xb6;" horiz-adv-x="724" 
d="M635 -185h-99v789h-79v-789h-99v446h-84q-96 0 -160 57q-67 61 -67 163q0 101 68 162q63 57 159 57h361v-885z" />
    <glyph glyph-name="bullet" unicode="&#x2022;" horiz-adv-x="430" 
d="M365 366q0 -63 -43.5 -106.5t-106.5 -43.5t-106.5 43.5t-43.5 106.5t43.5 107.5t106.5 44.5t106.5 -44.5t43.5 -107.5z" />
    <glyph glyph-name="quotesinglbase" unicode="&#x201a;" horiz-adv-x="265" 
d="M210 139l-76 -251h-69l14 251h131z" />
    <glyph glyph-name="quotedblbase" unicode="&#x201e;" horiz-adv-x="500" 
d="M445 139l-76 -251h-69l14 251h131zM210 139l-76 -251h-69l14 251h131z" />
    <glyph glyph-name="quotedblright" unicode="&#x201d;" horiz-adv-x="500" 
d="M445 700l-76 -251h-69l14 251h131zM210 700l-76 -251h-69l14 251h131z" />
    <glyph glyph-name="guillemotright" unicode="&#xbb;" horiz-adv-x="588" 
d="M548 0h-111l-185 262l185 263h111l-180 -262zM326 0h-111l-185 262l185 263h111l-180 -262z" />
    <glyph glyph-name="ellipsis" unicode="&#x2026;" horiz-adv-x="762" 
d="M714 68q0 -32 -23.5 -55.5t-55.5 -23.5t-55.5 23.5t-23.5 55.5t23.5 56t55.5 24t55.5 -24t23.5 -56zM460 68q0 -32 -23.5 -55.5t-55.5 -23.5t-55.5 23.5t-23.5 55.5t23.5 56t55.5 24t55.5 -24t23.5 -56zM206 68q0 -32 -23.5 -55.5t-55.5 -23.5t-55.5 23.5t-23.5 55.5
t23.5 56t55.5 24t55.5 -24t23.5 -56z" />
    <glyph glyph-name="perthousand" unicode="&#x2030;" horiz-adv-x="1372" 
d="M1333 207q0 -95 -49 -156.5t-125 -61.5t-123.5 60t-47.5 156q0 97 47.5 158t125.5 61q79 0 125.5 -60.5t46.5 -156.5zM929 207q0 -95 -49 -156.5t-125 -61.5t-123.5 60t-47.5 156q0 97 47.5 158t125.5 61q79 0 125.5 -60.5t46.5 -156.5zM754 700l-429 -700h-101l429 700
h101zM395 494q0 -95 -49 -156.5t-125 -61.5t-123.5 60t-47.5 156q0 97 47.5 158t125.5 61q79 0 125.5 -60.5t46.5 -156.5zM1243 205q0 61 -22 96.5t-61 35.5q-82 0 -82 -130q0 -61 22 -96.5t61 -35.5t61 38q21 35 21 92zM839 205q0 61 -22 96.5t-61 35.5q-82 0 -82 -130
q0 -61 22 -96.5t61 -35.5t61 38q21 35 21 92zM305 492q0 61 -22 96.5t-61 35.5q-82 0 -82 -130q0 -61 22 -96.5t61 -35.5t61 38q21 35 21 92z" />
    <glyph glyph-name="questiondown" unicode="&#xbf;" horiz-adv-x="571" 
d="M388 636q0 -31 -22 -53.5t-53 -22.5t-53 22.5t-22 53.5t22 53t53 22t53 -22t22 -53zM537 92q-103 -103 -244 -103q-109 0 -174 48.5t-65 137.5q0 69 33 112q28 37 96 75q49 27 63 56q12 23 12 80h109q0 -89 -25 -131t-107 -87q-40 -22 -57 -43t-17 -56q0 -88 135 -88
q93 0 174 78z" />
    <glyph glyph-name="grave" unicode="`" horiz-adv-x="500" 
d="M347 595h-82l-165 160h140z" />
    <glyph glyph-name="acute" unicode="&#xb4;" horiz-adv-x="500" 
d="M400 755l-165 -160h-82l107 160h140z" />
    <glyph glyph-name="circumflex" unicode="&#x2c6;" horiz-adv-x="500" 
d="M427 595h-83l-95 88l-95 -88h-81l117 160h120z" />
    <glyph glyph-name="tilde" unicode="&#x2dc;" horiz-adv-x="500" 
d="M439 728q0 -65 -29 -100.5t-76 -35.5q-45 0 -118 44q-23 14 -39 14q-32 0 -39 -55h-71q0 65 29 100.5t76 35.5q45 0 118 -44q23 -14 39 -14q32 0 39 55h71z" />
    <glyph glyph-name="macron" unicode="&#xaf;" horiz-adv-x="500" 
d="M390 610h-280v90h280v-90z" />
    <glyph glyph-name="macron" unicode="&#x2c9;" horiz-adv-x="500" 
d="M390 610h-280v90h280v-90z" />
    <glyph glyph-name="macron" unicode="&#x2c9;" horiz-adv-x="500" 
d="M390 610h-280v90h280v-90z" />
    <glyph glyph-name="breve" unicode="&#x2d8;" horiz-adv-x="500" 
d="M427 755q-7 -76 -53.5 -118t-124.5 -42q-76 0 -122.5 42t-53.5 118h74q13 -75 104 -75q92 0 104 75h72z" />
    <glyph glyph-name="dotaccent" unicode="&#x2d9;" horiz-adv-x="500" 
d="M317 662q0 -27 -20 -47t-47 -20q-28 0 -48 20t-20 47q0 28 20 48t48 20q27 0 47 -20t20 -48z" />
    <glyph glyph-name="dieresis" unicode="&#xa8;" horiz-adv-x="500" 
d="M415 662q0 -27 -20 -47t-47 -20q-28 0 -48 20t-20 47q0 28 20 48t48 20q27 0 47 -20t20 -48zM220 662q0 -27 -20 -47t-47 -20q-28 0 -48 20t-20 47q0 28 20 48t48 20q27 0 47 -20t20 -48z" />
    <glyph glyph-name="ring" unicode="&#x2da;" horiz-adv-x="500" 
d="M376 720q0 -54 -36 -89.5t-90 -35.5t-90 35.5t-36 89.5t36 90t90 36t90 -36t36 -90zM311 720q0 27 -17.5 44.5t-43.5 17.5t-43.5 -17.5t-17.5 -44.5t17.5 -44.5t43.5 -17.5t43.5 17.5t17.5 44.5z" />
    <glyph glyph-name="cedilla" unicode="&#xb8;" horiz-adv-x="500" 
d="M375 -106q0 -87 -122 -87q-67 0 -123 36l22 33q42 -24 88 -24q64 0 64 39q0 32 -32 32q-22 0 -40 -15l-36 14l18 90h51l-10 -57q22 9 48 9q29 0 49 -16q23 -19 23 -54z" />
    <glyph glyph-name="hungarumlaut" unicode="&#x2dd;" horiz-adv-x="500" 
d="M502 755l-165 -160h-82l107 160h140zM297 755l-165 -160h-82l107 160h140z" />
    <glyph glyph-name="ogonek" unicode="&#x2db;" horiz-adv-x="500" 
d="M376 -150q-56 -43 -118 -43q-105 0 -105 86q0 62 86 107h50q-59 -52 -59 -100q0 -41 43 -41q34 0 80 25z" />
    <glyph glyph-name="caron" unicode="&#x2c7;" horiz-adv-x="500" 
d="M427 755l-117 -160h-120l-117 160h83l95 -88l95 88h81z" />
    <glyph glyph-name="emdash" unicode="&#x2014;" horiz-adv-x="620" 
d="M565 318h-510v96h510v-96z" />
    <glyph glyph-name="AE" unicode="&#xc6;" horiz-adv-x="1018" 
d="M960 0h-462v164h-259l-108 -164h-117l470 700h461v-102h-346v-173h201v-102h-201v-221h361v-102zM500 565q-25 -41 -73 -117l-124 -187h195v168q0 22 1 73t1 63z" />
    <glyph glyph-name="ordfeminine" unicode="&#xaa;" horiz-adv-x="460" 
d="M391 279h-85v37q-49 -47 -111 -47q-60 0 -100 33q-49 38 -49 111q0 67 49 104q46 34 122 34q52 0 89 -16v27q0 70 -77 70q-62 0 -109 -25l-33 63q66 41 145 41q73 0 115 -36q44 -39 44 -109v-287zM306 401v56q-40 19 -93 19q-84 0 -84 -61q0 -67 79 -67q61 0 98 53z" />
    <glyph glyph-name="Lslash" unicode="&#x141;" horiz-adv-x="610" 
d="M560 0h-454v234l-66 -52v115l66 52v351h103v-279l140 115v-115l-140 -115v-203h351v-103z" />
    <glyph glyph-name="Oslash" unicode="&#xd8;" horiz-adv-x="709" 
d="M651 350q0 -161 -81 -261t-216 -100q-60 0 -111 21l-27 -60h-98l49 108q-109 101 -109 292q0 161 81 261t215 100q56 0 102 -18l26 57h98l-47 -102q118 -99 118 -298zM544 350q0 135 -55 200l-205 -449q26 -11 70 -11q91 0 140.5 70t49.5 190zM415 602q-27 8 -61 8
q-90 0 -139.5 -70t-49.5 -190q0 -127 48 -191z" />
    <glyph glyph-name="OE" unicode="&#x152;" horiz-adv-x="1059" 
d="M1001 0h-454v83q-64 -94 -193 -94q-134 0 -215 100t-81 261t81 261t215 100q60 0 113 -25.5t80 -68.5v83h439v-102h-346v-173h201v-102h-201v-221h361v-102zM544 350q0 119 -49.5 187.5t-140.5 68.5q-90 0 -139.5 -68.5t-49.5 -187.5t49.5 -187.5t139.5 -68.5
q91 0 140.5 68.5t49.5 187.5z" />
    <glyph glyph-name="ordmasculine" unicode="&#xba;" horiz-adv-x="484" 
d="M431 493q0 -103 -54 -163t-138 -60q-80 0 -133 61t-53 159q0 102 54 163q53 58 135 58t135.5 -60t53.5 -158zM344 490q0 64 -28 101.5t-77 37.5q-46 0 -72.5 -37t-26.5 -99q0 -67 28 -104t75 -37q45 0 73 40t28 98z" />
    <glyph glyph-name="ae" unicode="&#xe6;" horiz-adv-x="850" 
d="M794 272q0 -14 -3 -47h-321q4 -68 36.5 -104t81.5 -36q50 0 101 42l63 -68q-72 -70 -170 -70q-109 0 -168 89q-64 -89 -179 -89q-73 0 -123 40q-61 48 -61 137q0 84 61 129q56 42 150 42q62 0 107 -21v37q0 87 -91 87q-77 0 -134 -33l-41 80q81 49 178 49q110 0 153 -73
q60 73 151 73q101 0 157 -79q52 -73 52 -185zM692 313q-7 128 -112 128q-97 0 -109 -128h221zM369 150v73q-44 23 -111 23q-49 0 -77 -21t-28 -56q0 -84 98 -84q71 0 118 65z" />
    <glyph glyph-name="dotlessi" unicode="&#x131;" horiz-adv-x="265" 
d="M183 0h-103v525h103v-525z" />
    <glyph glyph-name="lslash" unicode="&#x142;" horiz-adv-x="285" 
d="M245 357l-52 -45v-312h-101v238l-52 -39v115l52 40v322l101 53v-301l52 44v-115z" />
    <glyph glyph-name="oslash" unicode="&#xf8;" 
d="M519 265q0 -128 -66.5 -202t-170.5 -74q-43 0 -83 16l-28 -55h-92l50 101q-78 78 -78 211q0 126 68 202q64 72 166 72q41 0 80 -14l26 53h92l-48 -96q84 -76 84 -214zM416 262q0 78 -27 124l-149 -297q24 -8 46 -8q60 0 96 53q34 50 34 128zM323 438q-19 6 -42 6
q-60 0 -93.5 -48.5t-33.5 -130.5q0 -75 23 -119z" />
    <glyph glyph-name="oe" unicode="&#x153;" horiz-adv-x="916" 
d="M860 270q0 -12 -3 -45h-345q8 -70 46 -107q33 -33 84 -33q62 0 113 42l63 -70q-70 -68 -182 -68q-52 0 -99.5 27t-73.5 73q-63 -100 -181 -100q-100 0 -165.5 75.5t-65.5 197.5q0 126 68 202q64 72 166 72q55 0 103 -27t74 -72q60 99 177 99q106 0 166 -80
q55 -72 55 -186zM753 313q-3 57 -32 90q-31 38 -89 38q-102 0 -119 -128h240zM415 262q0 81 -36 128.5t-98 47.5q-58 0 -92 -47t-34 -126q0 -85 35.5 -131.5t95.5 -46.5q57 0 94 52q35 49 35 123z" />
    <glyph glyph-name="germandbls" unicode="&#xdf;" horiz-adv-x="581" 
d="M530 226q0 -226 -258 -226h-12v94h18q148 0 148 126q0 63 -46 98q-41 31 -109 31h-11v93h15q44 0 70.5 25t26.5 71q0 43 -26 68t-72 25q-95 0 -95 -106v-663l-103 -55v714q0 103 55 156q52 49 145 49q87 0 142 -49q58 -52 58 -136q0 -108 -89 -139q143 -32 143 -176z" />
    <glyph glyph-name="brokenbar" unicode="&#xa6;" horiz-adv-x="297" 
d="M201 0h-105v700h105v-700zM345 905l-165 -160h-82l107 160h140z" />
    <glyph glyph-name="copyright" unicode="&#xa9;" horiz-adv-x="297" 
d="M201 0h-105v700h105v-700zM450 738h-83l-95 88l-95 -88h-81l117 160h120z" />
    <glyph glyph-name="logicalnot" unicode="&#xac;" horiz-adv-x="297" 
d="M201 0h-105v700h105v-700zM426 812q0 -27 -20 -47t-47 -20q-28 0 -48 20t-20 47q0 28 20 48t48 20q27 0 47 -20t20 -48zM231 812q0 -27 -20 -47t-47 -20q-28 0 -48 20t-20 47q0 28 20 48t48 20q27 0 47 -20t20 -48z" />
    <glyph glyph-name="registered" unicode="&#xae;" horiz-adv-x="694" 
d="M638 350q0 -175 -102 -268q-91 -82 -239 -82h-191v316h-66v100h66v284h191q151 0 241 -82q100 -92 100 -268zM531 350q0 247 -234 247h-89v-181h127v-100h-127v-213h89q234 0 234 247z" />
    <glyph glyph-name="degree" unicode="&#xb0;" horiz-adv-x="714" 
d="M623 0h-100l-279 439q-20 34 -52 86q0 -11 1 -76v-86v-363h-102v700h107l266 -427q28 -45 58 -99v78q-1 66 -1 87v361h102v-700zM550 880q0 -65 -29 -100.5t-76 -35.5q-45 0 -118 44q-23 14 -39 14q-32 0 -39 -55h-71q0 65 29 100.5t76 35.5q45 0 118 -44q23 -14 39 -14
q32 0 39 55h71z" />
    <glyph glyph-name="plusminus" unicode="&#xb1;" horiz-adv-x="709" 
d="M651 350q0 -161 -81 -261t-216 -100q-134 0 -215 100t-81 261t81 261t215 100q135 0 216 -100t81 -261zM544 350q0 119 -49.5 187.5t-140.5 68.5q-90 0 -139.5 -68.5t-49.5 -187.5t49.5 -187.5t139.5 -68.5q91 0 140.5 68.5t49.5 187.5zM413 745h-82l-165 160h140z" />
    <glyph glyph-name="twosuperior" unicode="&#xb2;" horiz-adv-x="615" 
d="M557 0h-466v700h451v-102h-346v-173h201v-102h-201v-221h361v-102zM497 905l-165 -160h-82l107 160h140z" />
    <glyph glyph-name="threesuperior" unicode="&#xb3;" horiz-adv-x="615" 
d="M557 0h-466v700h451v-102h-346v-173h201v-102h-201v-221h361v-102zM494 745h-83l-95 88l-95 -88h-81l117 160h120z" />
    <glyph glyph-name="onesuperior" unicode="&#xb9;" horiz-adv-x="615" 
d="M557 0h-466v700h451v-102h-346v-173h201v-102h-201v-221h361v-102zM374 745h-82l-165 160h140z" />
    <glyph glyph-name="onequarter" unicode="&#xbc;" horiz-adv-x="712" 
d="M665 0h-112l-59 166h-280l-58 -166h-109l252 700h111zM462 260l-56 161q-43 124 -53 161q-18 -68 -51 -162l-56 -160h216zM517 812q0 -27 -20 -47t-47 -20q-28 0 -48 20t-20 47q0 28 20 48t48 20q27 0 47 -20t20 -48zM322 812q0 -27 -20 -47t-47 -20q-28 0 -48 20t-20 47
q0 28 20 48t48 20q27 0 47 -20t20 -48z" />
    <glyph glyph-name="onehalf" unicode="&#xbd;" horiz-adv-x="712" 
d="M665 0h-115l-58 163h-275l-57 -163h-113l234 650q-53 36 -53 104q0 54 36 90t90 36t90 -36t36 -90q0 -67 -52 -103zM415 754q0 26 -17.5 43.5t-43.5 17.5t-43.5 -17.5t-17.5 -43.5t17.5 -43.5t43.5 -17.5t43.5 17.5t17.5 43.5zM456 264l-55 157q-32 92 -47 140
q-18 -57 -45 -136l-56 -161h203z" />
    <glyph glyph-name="threequarters" unicode="&#xbe;" horiz-adv-x="655" 
d="M595 123q-76 -131 -234 -134l-6 -34q22 9 48 9q29 0 49 -16q23 -19 23 -54q0 -87 -122 -87q-67 0 -123 36l22 33q42 -24 88 -24q64 0 64 39q0 32 -32 32q-22 0 -40 -15l-36 14l14 70q-116 16 -184 114t-68 244q0 161 81 261t215 100q164 0 238 -131l-93 -58
q-28 45 -59 63q-34 21 -86 21q-90 0 -139 -68.5t-49 -187.5t49 -187.5t139 -68.5q99 0 154 87z" />
    <glyph glyph-name="Agrave" unicode="&#xc0;" horiz-adv-x="709" 
d="M651 350q0 -161 -81 -261t-216 -100q-134 0 -215 100t-81 261t81 261t215 100q135 0 216 -100t81 -261zM544 350q0 119 -49.5 187.5t-140.5 68.5q-90 0 -139.5 -68.5t-49.5 -187.5t49.5 -187.5t139.5 -68.5q91 0 140.5 68.5t49.5 187.5zM527 740h-83l-95 88l-95 -88h-81
l117 160h120z" />
    <glyph glyph-name="Aacute" unicode="&#xc1;" horiz-adv-x="709" 
d="M651 350q0 -161 -81 -261t-216 -100q-134 0 -215 100t-81 261t81 261t215 100q135 0 216 -100t81 -261zM544 350q0 119 -49.5 187.5t-140.5 68.5q-90 0 -139.5 -68.5t-49.5 -187.5t49.5 -187.5t139.5 -68.5q91 0 140.5 68.5t49.5 187.5zM531 878q0 -65 -29 -100.5
t-76 -35.5q-45 0 -118 44q-23 14 -39 14q-32 0 -39 -55h-71q0 65 29 100.5t76 35.5q45 0 118 -44q23 -14 39 -14q32 0 39 55h71z" />
    <glyph glyph-name="Acircumflex" unicode="&#xc2;" horiz-adv-x="709" 
d="M651 350q0 -161 -81 -261t-216 -100q-134 0 -215 100t-81 261t81 261t215 100q135 0 216 -100t81 -261zM544 350q0 119 -49.5 187.5t-140.5 68.5q-90 0 -139.5 -68.5t-49.5 -187.5t49.5 -187.5t139.5 -68.5q91 0 140.5 68.5t49.5 187.5zM515 812q0 -27 -20 -47t-47 -20
q-28 0 -48 20t-20 47q0 28 20 48t48 20q27 0 47 -20t20 -48zM320 812q0 -27 -20 -47t-47 -20q-28 0 -48 20t-20 47q0 28 20 48t48 20q27 0 47 -20t20 -48z" />
    <glyph glyph-name="Atilde" unicode="&#xc3;" horiz-adv-x="760" 
d="M740 346l-167 -126q-11 -6 -17 -2q-12 8 -7 18l23 66h-147v-149l65 23q11 4 19 -7q4 -7 -2 -17l-126 -167l-126 167q-4 7 -4 12q0 3 1 5q9 11 20 7l65 -23v149h-149l23 -66q5 -10 -7 -18q-6 -4 -17 2l-167 126l167 126q12 7 17 3q11 -9 7 -20l-23 -65h149v157l-65 -23
q-11 -4 -20 7q-1 1 -1 4q0 6 4 13l126 167l126 -167q6 -11 2 -17q-8 -11 -19 -7l-65 23v-157h147l-23 65q-4 11 7 20q5 4 17 -3z" />
    <glyph glyph-name="Adieresis" unicode="&#xc4;" horiz-adv-x="704" 
d="M618 292q0 -147 -69 -225t-200 -78q-129 0 -196 79.5t-67 225.5v406h105v-403q0 -203 160 -203q162 0 162 196v410h105v-408zM415 730h-82l-165 160h140z" />
    <glyph glyph-name="Aring" unicode="&#xc5;" horiz-adv-x="704" 
d="M618 292q0 -147 -69 -225t-200 -78q-129 0 -196 79.5t-67 225.5v406h105v-403q0 -203 160 -203q162 0 162 196v410h105v-408zM538 890l-165 -160h-82l107 160h140z" />
    <glyph glyph-name="Ccedilla" unicode="&#xc7;" horiz-adv-x="704" 
d="M618 292q0 -147 -69 -225t-200 -78q-129 0 -196 79.5t-67 225.5v406h105v-403q0 -203 160 -203q162 0 162 196v410h105v-408zM529 745h-83l-95 88l-95 -88h-81l117 160h120z" />
    <glyph glyph-name="Egrave" unicode="&#xc8;" horiz-adv-x="704" 
d="M618 292q0 -147 -69 -225t-200 -78q-129 0 -196 79.5t-67 225.5v406h105v-403q0 -203 160 -203q162 0 162 196v410h105v-408zM517 812q0 -27 -20 -47t-47 -20q-28 0 -48 20t-20 47q0 28 20 48t48 20q27 0 47 -20t20 -48zM322 812q0 -27 -20 -47t-47 -20q-28 0 -48 20
t-20 47q0 28 20 48t48 20q27 0 47 -20t20 -48z" />
    <glyph glyph-name="Eacute" unicode="&#xc9;" horiz-adv-x="689" 
d="M648 700l-251 -423v-277h-105v277l-251 423h123l109 -193q43 -76 72 -139q27 59 72 138l110 194h121zM531 890l-165 -160h-82l107 160h140z" />
    <glyph glyph-name="Ecircumflex" unicode="&#xca;" horiz-adv-x="655" 
d="M595 123q-78 -134 -241 -134q-134 0 -215 100t-81 261t81 261t215 100q164 0 238 -131l-93 -58q-28 45 -59 63q-34 21 -86 21q-90 0 -139 -68.5t-49 -187.5t49 -187.5t139 -68.5q99 0 154 87zM528 912l-117 -160h-120l-117 160h83l95 -88l95 88h81z" />
    <glyph glyph-name="Edieresis" unicode="&#xcb;" horiz-adv-x="550" 
d="M478 0h-101v52q-63 -63 -144 -63q-73 0 -123 40q-59 48 -59 137q0 84 60 129q55 41 149 41q72 0 117 -20v39q0 89 -99 89q-78 0 -137 -33l-40 78q76 47 180 47q91 0 142 -43q55 -46 55 -133v-360zM377 149v75q-46 23 -120 23q-50 0 -79 -21t-29 -57q0 -87 101 -87
q78 0 127 67zM341 595h-82l-165 160h140z" />
    <glyph glyph-name="Igrave" unicode="&#xcc;" horiz-adv-x="550" 
d="M478 0h-101v52q-63 -63 -144 -63q-73 0 -123 40q-59 48 -59 137q0 84 60 129q55 41 149 41q72 0 117 -20v39q0 89 -99 89q-78 0 -137 -33l-40 78q76 47 180 47q91 0 142 -43q55 -46 55 -133v-360zM377 149v75q-46 23 -120 23q-50 0 -79 -21t-29 -57q0 -87 101 -87
q78 0 127 67zM464 755l-165 -160h-82l107 160h140z" />
    <glyph glyph-name="Iacute" unicode="&#xcd;" horiz-adv-x="550" 
d="M478 0h-101v52q-63 -63 -144 -63q-73 0 -123 40q-59 48 -59 137q0 84 60 129q55 41 149 41q72 0 117 -20v39q0 89 -99 89q-78 0 -137 -33l-40 78q76 47 180 47q91 0 142 -43q55 -46 55 -133v-360zM377 149v75q-46 23 -120 23q-50 0 -79 -21t-29 -57q0 -87 101 -87
q78 0 127 67zM455 590h-83l-95 88l-95 -88h-81l117 160h120z" />
    <glyph glyph-name="Icircumflex" unicode="&#xce;" horiz-adv-x="550" 
d="M478 0h-101v52q-63 -63 -144 -63q-73 0 -123 40q-59 48 -59 137q0 84 60 129q55 41 149 41q72 0 117 -20v39q0 89 -99 89q-78 0 -137 -33l-40 78q76 47 180 47q91 0 142 -43q55 -46 55 -133v-360zM377 149v75q-46 23 -120 23q-50 0 -79 -21t-29 -57q0 -87 101 -87
q78 0 127 67zM459 728q0 -65 -29 -100.5t-76 -35.5q-45 0 -118 44q-23 14 -39 14q-32 0 -39 -55h-71q0 65 29 100.5t76 35.5q45 0 118 -44q23 -14 39 -14q32 0 39 55h71z" />
    <glyph glyph-name="Idieresis" unicode="&#xcf;" horiz-adv-x="550" 
d="M478 0h-101v52q-63 -63 -144 -63q-73 0 -123 40q-59 48 -59 137q0 84 60 129q55 41 149 41q72 0 117 -20v39q0 89 -99 89q-78 0 -137 -33l-40 78q76 47 180 47q91 0 142 -43q55 -46 55 -133v-360zM377 149v75q-46 23 -120 23q-50 0 -79 -21t-29 -57q0 -87 101 -87
q78 0 127 67zM443 657q0 -27 -20 -47t-47 -20q-28 0 -48 20t-20 47q0 28 20 48t48 20q27 0 47 -20t20 -48zM248 657q0 -27 -20 -47t-47 -20q-28 0 -48 20t-20 47q0 28 20 48t48 20q27 0 47 -20t20 -48z" />
    <glyph glyph-name="Eth" unicode="&#xd0;" horiz-adv-x="550" 
d="M478 0h-101v52q-63 -63 -144 -63q-73 0 -123 40q-59 48 -59 137q0 84 60 129q55 41 149 41q72 0 117 -20v39q0 89 -99 89q-78 0 -137 -33l-40 78q76 47 180 47q91 0 142 -43q55 -46 55 -133v-360zM377 149v75q-46 23 -120 23q-50 0 -79 -21t-29 -57q0 -87 101 -87
q78 0 127 67zM404 720q0 -54 -36 -89.5t-90 -35.5t-90 35.5t-36 89.5t36 90t90 36t90 -36t36 -90zM339 720q0 27 -17.5 44.5t-43.5 17.5t-43.5 -17.5t-17.5 -44.5t17.5 -44.5t43.5 -17.5t43.5 17.5t17.5 44.5z" />
    <glyph glyph-name="Ntilde" unicode="&#xd1;" horiz-adv-x="522" 
d="M467 447l-61 -73q-63 64 -128 64q-56 0 -89.5 -47t-33.5 -127t32 -127q34 -50 94 -50q57 0 119 65l66 -65q-75 -96 -182 -98l-6 -34q22 9 48 9q29 0 49 -16q23 -19 23 -54q0 -87 -122 -87q-67 0 -123 36l22 33q42 -24 88 -24q64 0 64 39q0 32 -32 32q-22 0 -40 -15
l-36 14l14 72q-80 17 -131 89t-51 178q0 127 67 203q64 72 163 72q111 0 186 -89z" />
    <glyph glyph-name="Ograve" unicode="&#xd2;" horiz-adv-x="554" 
d="M502 273q0 -14 -3 -47h-347q8 -72 46 -110q35 -34 86 -34q57 0 114 42l61 -66q-72 -69 -181 -69q-96 0 -160 71q-67 76 -67 202q0 131 64 204q62 70 166 70q107 0 166 -78q55 -72 55 -185zM398 311q-9 132 -124 132q-106 0 -120 -132h244zM339 595h-82l-165 160h140z" />
    <glyph glyph-name="Oacute" unicode="&#xd3;" horiz-adv-x="554" 
d="M502 273q0 -14 -3 -47h-347q8 -72 46 -110q35 -34 86 -34q57 0 114 42l61 -66q-72 -69 -181 -69q-96 0 -160 71q-67 76 -67 202q0 131 64 204q62 70 166 70q107 0 166 -78q55 -72 55 -185zM398 311q-9 132 -124 132q-106 0 -120 -132h244zM462 755l-165 -160h-82l107 160
h140z" />
    <glyph glyph-name="Ocircumflex" unicode="&#xd4;" horiz-adv-x="554" 
d="M502 273q0 -14 -3 -47h-347q8 -72 46 -110q35 -34 86 -34q57 0 114 42l61 -66q-72 -69 -181 -69q-96 0 -160 71q-67 76 -67 202q0 131 64 204q62 70 166 70q107 0 166 -78q55 -72 55 -185zM398 311q-9 132 -124 132q-106 0 -120 -132h244zM453 585h-83l-95 88l-95 -88
h-81l117 160h120z" />
    <glyph glyph-name="Otilde" unicode="&#xd5;" horiz-adv-x="554" 
d="M502 273q0 -14 -3 -47h-347q8 -72 46 -110q35 -34 86 -34q57 0 114 42l61 -66q-72 -69 -181 -69q-96 0 -160 71q-67 76 -67 202q0 131 64 204q62 70 166 70q107 0 166 -78q55 -72 55 -185zM398 311q-9 132 -124 132q-106 0 -120 -132h244zM441 657q0 -27 -20 -47t-47 -20
q-28 0 -48 20t-20 47q0 28 20 48t48 20q27 0 47 -20t20 -48zM246 657q0 -27 -20 -47t-47 -20q-28 0 -48 20t-20 47q0 28 20 48t48 20q27 0 47 -20t20 -48z" />
    <glyph glyph-name="Odieresis" unicode="&#xd6;" horiz-adv-x="265" 
d="M183 0h-103v525h103v-525zM327 595h-82l-165 160h140z" />
    <glyph glyph-name="multiply" unicode="&#xd7;" horiz-adv-x="265" 
d="M183 0h-103v525h103v-525zM330 755l-165 -160h-82l107 160h140z" />
    <glyph glyph-name="Ugrave" unicode="&#xd9;" horiz-adv-x="265" 
d="M183 0h-103v525h103v-525zM434 580h-83l-95 88l-95 -88h-81l117 160h120z" />
    <glyph glyph-name="Uacute" unicode="&#xda;" horiz-adv-x="265" 
d="M183 0h-103v525h103v-525zM410 652q0 -27 -20 -47t-47 -20q-28 0 -48 20t-20 47q0 28 20 48t48 20q27 0 47 -20t20 -48zM215 652q0 -27 -20 -47t-47 -20q-28 0 -48 20t-20 47q0 28 20 48t48 20q27 0 47 -20t20 -48z" />
    <glyph glyph-name="Ucircumflex" unicode="&#xdb;" 
d="M494 0h-102v50q-66 -61 -137 -61q-91 0 -143 66q-59 73 -59 216q0 128 63 200q56 65 144 65q78 0 132 -60v110h-104v80h104v64l102 -1v-63h76v-80h-76v-586zM393 151v221q-51 69 -123 69q-114 0 -114 -167q0 -190 118 -190q66 0 119 67z" />
    <glyph glyph-name="Udieresis" unicode="&#xdc;" 
d="M498 0h-103v297q0 144 -108 144t-108 -134v-307h-103v525h103v-50q42 61 132 61q187 0 187 -235v-301zM465 728q0 -65 -29 -100.5t-76 -35.5q-45 0 -118 44q-23 14 -39 14q-32 0 -39 -55h-71q0 65 29 100.5t76 35.5q45 0 118 -44q23 -14 39 -14q32 0 39 55h71z" />
    <glyph glyph-name="Yacute" unicode="&#xdd;" 
d="M519 265q0 -128 -66.5 -202t-170.5 -74q-100 0 -165.5 75.5t-65.5 197.5q0 126 68 202q64 72 166 72t168 -75t66 -196zM415 262q0 81 -36 128.5t-98 47.5q-58 0 -92 -47t-34 -126q0 -85 35.5 -131.5t95.5 -46.5q57 0 94 52q35 49 35 123zM345 595h-82l-165 160h140z" />
    <glyph glyph-name="Thorn" unicode="&#xde;" 
d="M519 265q0 -128 -66.5 -202t-170.5 -74q-100 0 -165.5 75.5t-65.5 197.5q0 126 68 202q64 72 166 72t168 -75t66 -196zM415 262q0 81 -36 128.5t-98 47.5q-58 0 -92 -47t-34 -126q0 -85 35.5 -131.5t95.5 -46.5q57 0 94 52q35 49 35 123zM468 755l-165 -160h-82l107 160
h140z" />
    <glyph glyph-name="agrave" unicode="&#xe0;" 
d="M519 265q0 -128 -66.5 -202t-170.5 -74q-100 0 -165.5 75.5t-65.5 197.5q0 126 68 202q64 72 166 72t168 -75t66 -196zM415 262q0 81 -36 128.5t-98 47.5q-58 0 -92 -47t-34 -126q0 -85 35.5 -131.5t95.5 -46.5q57 0 94 52q35 49 35 123zM459 585h-83l-95 88l-95 -88h-81
l117 160h120z" />
    <glyph glyph-name="aacute" unicode="&#xe1;" 
d="M519 265q0 -128 -66.5 -202t-170.5 -74q-100 0 -165.5 75.5t-65.5 197.5q0 126 68 202q64 72 166 72t168 -75t66 -196zM415 262q0 81 -36 128.5t-98 47.5q-58 0 -92 -47t-34 -126q0 -85 35.5 -131.5t95.5 -46.5q57 0 94 52q35 49 35 123zM463 728q0 -65 -29 -100.5
t-76 -35.5q-45 0 -118 44q-23 14 -39 14q-32 0 -39 -55h-71q0 65 29 100.5t76 35.5q45 0 118 -44q23 -14 39 -14q32 0 39 55h71z" />
    <glyph glyph-name="acircumflex" unicode="&#xe2;" 
d="M519 265q0 -128 -66.5 -202t-170.5 -74q-100 0 -165.5 75.5t-65.5 197.5q0 126 68 202q64 72 166 72t168 -75t66 -196zM415 262q0 81 -36 128.5t-98 47.5q-58 0 -92 -47t-34 -126q0 -85 35.5 -131.5t95.5 -46.5q57 0 94 52q35 49 35 123zM447 652q0 -27 -20 -47t-47 -20
q-28 0 -48 20t-20 47q0 28 20 48t48 20q27 0 47 -20t20 -48zM252 652q0 -27 -20 -47t-47 -20q-28 0 -48 20t-20 47q0 28 20 48t48 20q27 0 47 -20t20 -48z" />
    <glyph glyph-name="atilde" unicode="&#xe3;" horiz-adv-x="760" 
d="M740 346l-167 -126q-11 -6 -17 -2q-12 8 -7 18l23 66h-147v-149l65 23q11 4 19 -7q4 -7 -2 -17l-126 -167l-126 167q-4 7 -4 12q0 3 1 5q9 11 20 7l65 -23v149h-149l23 -66q5 -10 -7 -18q-6 -4 -17 2l-167 126l167 126q12 7 17 3q11 -9 7 -20l-23 -65h149v157l-65 -23
q-11 -4 -20 7q-1 1 -1 4q0 6 4 13l126 167l126 -167q6 -11 2 -17q-8 -11 -19 -7l-65 23v-157h147l-23 65q-4 11 7 20q5 4 17 -3z" />
    <glyph glyph-name="adieresis" unicode="&#xe4;" 
d="M494 0h-103v50q-42 -61 -132 -61q-187 0 -187 235v301h103v-297q0 -144 108 -144t108 134v307h103v-525zM346 595h-82l-165 160h140z" />
    <glyph glyph-name="aring" unicode="&#xe5;" 
d="M494 0h-103v50q-42 -61 -132 -61q-187 0 -187 235v301h103v-297q0 -144 108 -144t108 134v307h103v-525zM469 755l-165 -160h-82l107 160h140z" />
    <glyph glyph-name="ccedilla" unicode="&#xe7;" 
d="M494 0h-103v50q-42 -61 -132 -61q-187 0 -187 235v301h103v-297q0 -144 108 -144t108 134v307h103v-525zM460 595h-83l-95 88l-95 -88h-81l117 160h120z" />
    <glyph glyph-name="egrave" unicode="&#xe8;" 
d="M494 0h-103v50q-42 -61 -132 -61q-187 0 -187 235v301h103v-297q0 -144 108 -144t108 134v307h103v-525zM448 662q0 -27 -20 -47t-47 -20q-28 0 -48 20t-20 47q0 28 20 48t48 20q27 0 47 -20t20 -48zM253 662q0 -27 -20 -47t-47 -20q-28 0 -48 20t-20 47q0 28 20 48
t48 20q27 0 47 -20t20 -48z" />
    <glyph glyph-name="eacute" unicode="&#xe9;" horiz-adv-x="556" 
d="M523 525l-264 -710h-109l76 195l-193 515h113l86 -257q38 -112 46 -153q27 92 47 151l89 259h109zM463 745l-165 -160h-82l107 160h140z" />
    <glyph glyph-name="ecircumflex" unicode="&#xea;" horiz-adv-x="522" 
d="M467 447l-61 -73q-63 64 -128 64q-56 0 -89.5 -47t-33.5 -127t32 -127q34 -50 94 -50q57 0 119 65l66 -65q-77 -98 -188 -98q-98 0 -161 75q-66 76 -66 197q0 127 67 203q64 72 163 72q111 0 186 -89zM451 755l-117 -160h-120l-117 160h83l95 -88l95 88h81z" />
    <glyph glyph-name="edieresis" unicode="&#xeb;" horiz-adv-x="556" 
d="M523 525l-264 -710h-109l76 195l-193 515h113l86 -257q38 -112 46 -153q27 92 47 151l89 259h109zM442 652q0 -27 -20 -47t-47 -20q-28 0 -48 20t-20 47q0 28 20 48t48 20q27 0 47 -20t20 -48zM247 652q0 -27 -20 -47t-47 -20q-28 0 -48 20t-20 47q0 28 20 48t48 20
q27 0 47 -20t20 -48z" />
    <glyph glyph-name="igrave" unicode="&#xec;" horiz-adv-x="626" 
d="M560 201q0 -98 -62 -153q-67 -59 -197 -59q-152 0 -249 113l75 73q76 -83 182 -83q145 0 145 102q0 40 -34.5 64.5t-123.5 51.5q-121 36 -165 73q-54 45 -54 133q0 89 66 142t165 53q131 0 229 -95l-74 -75q-66 67 -163 67q-58 0 -87.5 -24.5t-29.5 -62.5
q0 -37 31.5 -59.5t121.5 -49.5q116 -35 164 -74q60 -50 60 -137zM481 912l-117 -160h-120l-117 160h83l95 -88l95 88h81z" />
    <glyph glyph-name="iacute" unicode="&#xed;" horiz-adv-x="499" 
d="M443 144q0 -81 -60 -121q-51 -34 -137 -34q-110 0 -201 67l47 78q75 -52 153 -52q96 0 96 58q0 27 -33 48q-21 14 -89 40q-86 33 -120 68.5t-34 96.5q0 69 49 106t130 37q98 0 178 -58l-45 -79q-64 45 -136 45t-72 -48q0 -38 97.5 -76t131.5 -68q45 -39 45 -108zM418 755
l-117 -160h-120l-117 160h83l95 -88l95 88h81z" />
    <glyph glyph-name="icircumflex" unicode="&#xee;" horiz-adv-x="770" 
d="M728 306h-64v253q-5 -13 -16 -39l-98 -226l-96 226q-5 14 -16 38q1 -14 1 -44v-208h-64v394h67l89 -204q8 -19 21 -54l21 54l87 204h68v-394zM310 634h-112v-328h-67v328h-112v66h291v-66z" />
    <glyph glyph-name="idieresis" unicode="&#xef;" horiz-adv-x="689" 
d="M648 700l-251 -423v-277h-105v277l-251 423h123l109 -193q43 -76 72 -139q27 59 72 138l110 194h121zM510 802q0 -27 -20 -47t-47 -20q-28 0 -48 20t-20 47q0 28 20 48t48 20q27 0 47 -20t20 -48zM315 802q0 -27 -20 -47t-47 -20q-28 0 -48 20t-20 47q0 28 20 48t48 20
q27 0 47 -20t20 -48z" />
    <glyph glyph-name="eth" unicode="&#xf0;" horiz-adv-x="760" 
d="M740 346l-167 -126q-11 -6 -17 -2q-12 8 -7 18l23 66h-147v-149l65 23q11 4 19 -7q4 -7 -2 -17l-126 -167l-126 167q-4 7 -4 12q0 3 1 5q9 11 20 7l65 -23v149h-149l23 -66q5 -10 -7 -18q-6 -4 -17 2l-167 126l167 126q12 7 17 3q11 -9 7 -20l-23 -65h149v157l-65 -23
q-11 -4 -20 7q-1 1 -1 4q0 6 4 13l126 167l126 -167q6 -11 2 -17q-8 -11 -19 -7l-65 23v-157h147l-23 65q-4 11 7 20q5 4 17 -3z" />
    <glyph glyph-name="ograve" unicode="&#xf2;" horiz-adv-x="410" 
d="M347 205q6 -8 -3 -21l-139 -199l-140 199q-7 13 -2 21q10 14 25 9l67 -21v507h100v-506l68 20q15 4 24 -9z" />
    <glyph glyph-name="oacute" unicode="&#xf3;" horiz-adv-x="617" 
d="M581 700l-271 -700h-109l-163 340h119l43 -98q24 -53 55 -132q25 82 45 136l166 454h115z" />
    <glyph glyph-name="ocircumflex" unicode="&#xf4;" horiz-adv-x="410" 
d="M347 495q-9 -14 -24 -9l-68 21v-507h-100v507l-67 -21q-15 -5 -25 9q-6 8 2 22l140 198l139 -199q9 -13 3 -21z" />
    <glyph glyph-name="otilde" unicode="&#xf5;" 
d="M494 0h-102v50q-66 -61 -137 -61q-91 0 -143 66q-59 73 -59 216q0 128 63 200q56 65 144 65q78 0 132 -60v49h102v-525zM393 151v221q-51 69 -123 69q-114 0 -114 -167q0 -190 118 -190q66 0 119 67z" />
    <glyph glyph-name="odieresis" unicode="&#xf6;" horiz-adv-x="499" 
d="M443 144q0 -81 -60 -121q-51 -34 -137 -34q-110 0 -201 67l47 78q75 -52 153 -52q96 0 96 58q0 27 -33 48q-21 14 -89 40q-86 33 -120 68.5t-34 96.5q0 69 49 106t130 37q98 0 178 -58l-45 -79q-64 45 -136 45t-72 -48q0 -38 97.5 -76t131.5 -68q45 -39 45 -108zM418 755
l-117 -160h-120l-117 160h83l95 -88l95 88h81z" />
    <glyph glyph-name="divide" unicode="&#xf7;" horiz-adv-x="760" 
d="M740 346l-167 -126q-11 -6 -17 -2q-12 8 -7 18l23 66h-147v-149l65 23q11 4 19 -7q4 -7 -2 -17l-126 -167l-126 167q-4 7 -4 12q0 3 1 5q9 11 20 7l65 -23v149h-149l23 -66q5 -10 -7 -18q-6 -4 -17 2l-167 126l167 126q12 7 17 3q11 -9 7 -20l-23 -65h149v157l-65 -23
q-11 -4 -20 7q-1 1 -1 4q0 6 4 13l126 167l126 -167q6 -11 2 -17q-8 -11 -19 -7l-65 23v-157h147l-23 65q-4 11 7 20q5 4 17 -3z" />
    <glyph glyph-name="ugrave" unicode="&#xf9;" horiz-adv-x="760" 
d="M740 346l-167 -126q-11 -6 -17 -2q-12 8 -7 18l23 66h-147v-149l65 23q11 4 19 -7q4 -7 -2 -17l-126 -167l-126 167q-4 7 -4 12q0 3 1 5q9 11 20 7l65 -23v149h-149l23 -66q5 -10 -7 -18q-6 -4 -17 2l-167 126l167 126q12 7 17 3q11 -9 7 -20l-23 -65h149v157l-65 -23
q-11 -4 -20 7q-1 1 -1 4q0 6 4 13l126 167l126 -167q6 -11 2 -17q-8 -11 -19 -7l-65 23v-157h147l-23 65q-4 11 7 20q5 4 17 -3z" />
    <glyph glyph-name="uacute" unicode="&#xfa;" horiz-adv-x="410" 
d="M347 205q6 -8 -3 -21l-139 -199l-140 199q-7 13 -2 21q10 14 25 9l67 -21v314l-67 -21q-15 -5 -25 9q-6 8 2 22l140 198l139 -199q9 -13 3 -21q-9 -14 -24 -9l-68 21v-314l68 21q15 5 24 -9z" />
    <glyph glyph-name="ucircumflex" unicode="&#xfb;" horiz-adv-x="760" 
d="M740 346l-167 -126q-11 -6 -17 -2q-12 8 -7 18l23 66h-147v-149l65 23q11 4 19 -7q4 -7 -2 -17l-126 -167l-126 167q-4 7 -4 12q0 3 1 5q9 11 20 7l65 -23v149h-149l23 -66q5 -10 -7 -18q-6 -4 -17 2l-167 126l167 126q12 7 17 3q11 -9 7 -20l-23 -65h149v157l-65 -23
q-11 -4 -20 7q-1 1 -1 4q0 6 4 13l126 167l126 -167q6 -11 2 -17q-8 -11 -19 -7l-65 23v-157h147l-23 65q-4 11 7 20q5 4 17 -3z" />
    <glyph glyph-name="udieresis" unicode="&#xfc;" horiz-adv-x="760" 
d="M740 346l-167 -126q-11 -6 -17 -2q-12 8 -7 18l23 66h-147v-149l65 23q11 4 19 -7q4 -7 -2 -17l-126 -167l-126 167q-4 7 -4 12q0 3 1 5q9 11 20 7l65 -23v149h-149l23 -66q5 -10 -7 -18q-6 -4 -17 2l-167 126l167 126q12 7 17 3q11 -9 7 -20l-23 -65h149v157l-65 -23
q-11 -4 -20 7q-1 1 -1 4q0 6 4 13l126 167l126 -167q6 -11 2 -17q-8 -11 -19 -7l-65 23v-157h147l-23 65q-4 11 7 20q5 4 17 -3z" />
    <glyph glyph-name="yacute" unicode="&#xfd;" horiz-adv-x="760" 
d="M740 346l-167 -126q-11 -6 -17 -2q-12 8 -7 18l23 66h-147v-149l65 23q11 4 19 -7q4 -7 -2 -17l-126 -167l-126 167q-4 7 -4 12q0 3 1 5q9 11 20 7l65 -23v149h-149l23 -66q5 -10 -7 -18q-6 -4 -17 2l-167 126l167 126q12 7 17 3q11 -9 7 -20l-23 -65h149v157l-65 -23
q-11 -4 -20 7q-1 1 -1 4q0 6 4 13l126 167l126 -167q6 -11 2 -17q-8 -11 -19 -7l-65 23v-157h147l-23 65q-4 11 7 20q5 4 17 -3z" />
    <glyph glyph-name="thorn" unicode="&#xfe;" horiz-adv-x="760" 
d="M740 346l-167 -126q-11 -6 -17 -2q-12 8 -7 18l23 66h-147v-149l65 23q11 4 19 -7q4 -7 -2 -17l-126 -167l-126 167q-4 7 -4 12q0 3 1 5q9 11 20 7l65 -23v149h-149l23 -66q5 -10 -7 -18q-6 -4 -17 2l-167 126l167 126q12 7 17 3q11 -9 7 -20l-23 -65h149v157l-65 -23
q-11 -4 -20 7q-1 1 -1 4q0 6 4 13l126 167l126 -167q6 -11 2 -17q-8 -11 -19 -7l-65 23v-157h147l-23 65q-4 11 7 20q5 4 17 -3z" />
    <glyph glyph-name="mu" unicode="&#xb5;" horiz-adv-x="709" 
d="M651 350q0 -161 -81 -261t-216 -100q-134 0 -215 100t-81 261t81 261t215 100q135 0 216 -100t81 -261zM544 350q0 119 -49.5 187.5t-140.5 68.5q-90 0 -139.5 -68.5t-49.5 -187.5t49.5 -187.5t139.5 -68.5q91 0 140.5 68.5t49.5 187.5zM536 905l-165 -160h-82l107 160
h140z" />
    <glyph glyph-name="mu" unicode="&#x3bc;" horiz-adv-x="709" 
d="M651 350q0 -161 -81 -261t-216 -100q-134 0 -215 100t-81 261t81 261t215 100q135 0 216 -100t81 -261zM544 350q0 119 -49.5 187.5t-140.5 68.5q-90 0 -139.5 -68.5t-49.5 -187.5t49.5 -187.5t139.5 -68.5q91 0 140.5 68.5t49.5 187.5zM536 905l-165 -160h-82l107 160
h140z" />
    <glyph glyph-name="mu" unicode="&#x3bc;" horiz-adv-x="709" 
d="M651 350q0 -161 -81 -261t-216 -100q-134 0 -215 100t-81 261t81 261t215 100q135 0 216 -100t81 -261zM544 350q0 119 -49.5 187.5t-140.5 68.5q-90 0 -139.5 -68.5t-49.5 -187.5t49.5 -187.5t139.5 -68.5q91 0 140.5 68.5t49.5 187.5zM536 905l-165 -160h-82l107 160
h140z" />
    <glyph glyph-name="minus" unicode="&#xad;" horiz-adv-x="615" 
d="M557 0h-466v700h451v-102h-346v-173h201v-102h-201v-221h361v-102zM492 812q0 -27 -20 -47t-47 -20q-28 0 -48 20t-20 47q0 28 20 48t48 20q27 0 47 -20t20 -48zM297 812q0 -27 -20 -47t-47 -20q-28 0 -48 20t-20 47q0 28 20 48t48 20q27 0 47 -20t20 -48z" />
    <glyph glyph-name="minus" unicode="&#x2212;" horiz-adv-x="615" 
d="M557 0h-466v700h451v-102h-346v-173h201v-102h-201v-221h361v-102zM492 812q0 -27 -20 -47t-47 -20q-28 0 -48 20t-20 47q0 28 20 48t48 20q27 0 47 -20t20 -48zM297 812q0 -27 -20 -47t-47 -20q-28 0 -48 20t-20 47q0 28 20 48t48 20q27 0 47 -20t20 -48z" />
    <glyph glyph-name="minus" unicode="&#x2212;" horiz-adv-x="615" 
d="M557 0h-466v700h451v-102h-346v-173h201v-102h-201v-221h361v-102zM492 812q0 -27 -20 -47t-47 -20q-28 0 -48 20t-20 47q0 28 20 48t48 20q27 0 47 -20t20 -48zM297 812q0 -27 -20 -47t-47 -20q-28 0 -48 20t-20 47q0 28 20 48t48 20q27 0 47 -20t20 -48z" />
    <glyph glyph-name="glyph223" horiz-adv-x="280" 
 />
    <glyph glyph-name="nonbreakingspace" unicode="&#xa0;" horiz-adv-x="297" 
d="M201 0h-105v700h105v-700zM202 745h-82l-165 160h140z" />
    <glyph glyph-name="eec736" horiz-adv-x="712" 
d="M665 0h-112l-59 166h-280l-58 -166h-109l252 700h111zM462 260l-56 161q-43 124 -53 161q-18 -68 -51 -162l-56 -160h216zM534 878q0 -65 -29 -100.5t-76 -35.5q-45 0 -118 44q-23 14 -39 14q-32 0 -39 -55h-71q0 65 29 100.5t76 35.5q45 0 118 -44q23 -14 39 -14
q32 0 39 55h71z" />
    <glyph glyph-name="eec737" horiz-adv-x="712" 
d="M665 0h-112l-59 166h-280l-58 -166h-109l252 700h111zM462 260l-56 161q-43 124 -53 161q-18 -68 -51 -162l-56 -160h216zM531 734h-83l-95 88l-95 -88h-81l117 160h120z" />
    <glyph glyph-name="eec738" horiz-adv-x="712" 
d="M665 0h-112l-59 166h-280l-58 -166h-109l252 700h111zM462 260l-56 161q-43 124 -53 161q-18 -68 -51 -162l-56 -160h216zM538 905l-165 -160h-82l107 160h140z" />
    <glyph glyph-name="eec739" horiz-adv-x="712" 
d="M665 0h-112l-59 166h-280l-58 -166h-109l252 700h111zM462 260l-56 161q-43 124 -53 161q-18 -68 -51 -162l-56 -160h216zM415 745h-82l-165 160h140z" />
    <glyph glyph-name="eec740" horiz-adv-x="800" 
d="M780 346l-199 -140q-13 -7 -21 -2q-14 10 -9 25l21 67h-344l21 -67q5 -15 -9 -25q-8 -6 -22 2l-198 140l199 139q13 9 21 3q14 -9 9 -24l-21 -68h344l-21 68q-5 15 9 24q8 6 21 -3z" />
    <glyph glyph-name="eec741" horiz-adv-x="760" 
d="M740 346l-167 -126q-11 -6 -17 -2q-12 8 -7 18l23 66h-147v-149l65 23q11 4 19 -7q4 -7 -2 -17l-126 -167l-126 167q-4 7 -4 12q0 3 1 5q9 11 20 7l65 -23v149h-149l23 -66q5 -10 -7 -18q-6 -4 -17 2l-167 126l167 126q12 7 17 3q11 -9 7 -20l-23 -65h149v157l-65 -23
q-11 -4 -20 7q-1 1 -1 4q0 6 4 13l126 167l126 -167q6 -11 2 -17q-8 -11 -19 -7l-65 23v-157h147l-23 65q-4 11 7 20q5 4 17 -3z" />
    <glyph glyph-name="eec742" horiz-adv-x="486" 
d="M441 514q0 -85 -57 -142t-141 -57q-83 0 -140.5 57.5t-57.5 141.5q0 83 57.5 140t140.5 57q84 0 141 -57t57 -140zM351 514q0 45 -31.5 76.5t-76.5 31.5t-76.5 -32t-31.5 -76q0 -46 31.5 -78t76.5 -32q46 0 77 31.5t31 78.5z" />
    <glyph glyph-name="eec743" horiz-adv-x="836" 
d="M779 350q0 -154 -103.5 -257.5t-257.5 -103.5t-257.5 103.5t-103.5 257.5t103.5 257.5t257.5 103.5t257.5 -103.5t103.5 -257.5zM721 350q0 129 -87 216t-216 87t-216 -87t-87 -216t87 -216t216 -87t216 87t87 216zM583 435q0 -91 -84 -116l81 -159h-79l-77 152h-76v-152
h-67v394h173q56 0 92.5 -30t36.5 -89zM515 433q0 56 -63 56h-104v-112h104q63 0 63 56z" />
    <glyph glyph-name="eec744" horiz-adv-x="626" 
d="M560 201q0 -98 -62 -153q-67 -59 -197 -59q-152 0 -249 113l75 73q76 -83 182 -83q145 0 145 102q0 40 -34.5 64.5t-123.5 51.5q-121 36 -165 73q-54 45 -54 133q0 89 66 142t165 53q131 0 229 -95l-74 -75q-66 67 -163 67q-58 0 -87.5 -24.5t-29.5 -62.5
q0 -37 31.5 -59.5t121.5 -49.5q116 -35 164 -74q60 -50 60 -137zM481 912l-117 -160h-120l-117 160h83l95 -88l95 88h81z" />
    <glyph glyph-name="eec745" horiz-adv-x="836" 
d="M779 350q0 -154 -103.5 -257.5t-257.5 -103.5t-257.5 103.5t-103.5 257.5t103.5 257.5t257.5 103.5t257.5 -103.5t103.5 -257.5zM721 350q0 129 -87 216t-216 87t-216 -87t-87 -216t87 -216t216 -87t216 87t87 216zM560 229q-47 -81 -139 -81q-75 0 -121 56.5t-46 147.5
q0 90 46 146.5t121 56.5q94 0 137 -78l-59 -37q-31 48 -78 48q-98 0 -98 -136q0 -137 98 -137q50 0 83 52z" />
    <glyph glyph-name="eec746" horiz-adv-x="664" 
d="M592 0h-532v102l342 413q53 64 79 90q-56 -2 -141 -2h-260v97h512v-102l-338 -413q-50 -61 -79 -90q56 2 141 2h276v-97zM506 905l-117 -160h-120l-117 160h83l95 -88l95 88h81z" />
    <glyph glyph-name="eec747" horiz-adv-x="135" 
 />
    <glyph glyph-name="eec748" horiz-adv-x="760" 
d="M740 346l-167 -126q-11 -6 -17 -2q-12 8 -7 18l23 66h-147v-149l65 23q11 4 19 -7q4 -7 -2 -17l-126 -167l-126 167q-4 7 -4 12q0 3 1 5q9 11 20 7l65 -23v149h-149l23 -66q5 -10 -7 -18q-6 -4 -17 2l-167 126l167 126q12 7 17 3q11 -9 7 -20l-23 -65h149v157l-65 -23
q-11 -4 -20 7q-1 1 -1 4q0 6 4 13l126 167l126 -167q6 -11 2 -17q-8 -11 -19 -7l-65 23v-157h147l-23 65q-4 11 7 20q5 4 17 -3z" />
    <glyph glyph-name="eec749" horiz-adv-x="760" 
d="M740 346l-167 -126q-11 -6 -17 -2q-12 8 -7 18l23 66h-147v-149l65 23q11 4 19 -7q4 -7 -2 -17l-126 -167l-126 167q-4 7 -4 12q0 3 1 5q9 11 20 7l65 -23v149h-149l23 -66q5 -10 -7 -18q-6 -4 -17 2l-167 126l167 126q12 7 17 3q11 -9 7 -20l-23 -65h149v157l-65 -23
q-11 -4 -20 7q-1 1 -1 4q0 6 4 13l126 167l126 -167q6 -11 2 -17q-8 -11 -19 -7l-65 23v-157h147l-23 65q-4 11 7 20q5 4 17 -3z" />
    <glyph glyph-name="eec750" horiz-adv-x="760" 
d="M740 346l-167 -126q-11 -6 -17 -2q-12 8 -7 18l23 66h-147v-149l65 23q11 4 19 -7q4 -7 -2 -17l-126 -167l-126 167q-4 7 -4 12q0 3 1 5q9 11 20 7l65 -23v149h-149l23 -66q5 -10 -7 -18q-6 -4 -17 2l-167 126l167 126q12 7 17 3q11 -9 7 -20l-23 -65h149v157l-65 -23
q-11 -4 -20 7q-1 1 -1 4q0 6 4 13l126 167l126 -167q6 -11 2 -17q-8 -11 -19 -7l-65 23v-157h147l-23 65q-4 11 7 20q5 4 17 -3z" />
    <glyph glyph-name="eec751" horiz-adv-x="760" 
d="M740 346l-167 -126q-11 -6 -17 -2q-12 8 -7 18l23 66h-147v-149l65 23q11 4 19 -7q4 -7 -2 -17l-126 -167l-126 167q-4 7 -4 12q0 3 1 5q9 11 20 7l65 -23v149h-149l23 -66q5 -10 -7 -18q-6 -4 -17 2l-167 126l167 126q12 7 17 3q11 -9 7 -20l-23 -65h149v157l-65 -23
q-11 -4 -20 7q-1 1 -1 4q0 6 4 13l126 167l126 -167q6 -11 2 -17q-8 -11 -19 -7l-65 23v-157h147l-23 65q-4 11 7 20q5 4 17 -3z" />
    <glyph glyph-name="eec752" horiz-adv-x="760" 
d="M740 346l-167 -126q-11 -6 -17 -2q-12 8 -7 18l23 66h-147v-149l65 23q11 4 19 -7q4 -7 -2 -17l-126 -167l-126 167q-4 7 -4 12q0 3 1 5q9 11 20 7l65 -23v149h-149l23 -66q5 -10 -7 -18q-6 -4 -17 2l-167 126l167 126q12 7 17 3q11 -9 7 -20l-23 -65h149v157l-65 -23
q-11 -4 -20 7q-1 1 -1 4q0 6 4 13l126 167l126 -167q6 -11 2 -17q-8 -11 -19 -7l-65 23v-157h147l-23 65q-4 11 7 20q5 4 17 -3z" />
    <glyph glyph-name="eec753" horiz-adv-x="760" 
d="M740 346l-167 -126q-11 -6 -17 -2q-12 8 -7 18l23 66h-147v-149l65 23q11 4 19 -7q4 -7 -2 -17l-126 -167l-126 167q-4 7 -4 12q0 3 1 5q9 11 20 7l65 -23v149h-149l23 -66q5 -10 -7 -18q-6 -4 -17 2l-167 126l167 126q12 7 17 3q11 -9 7 -20l-23 -65h149v157l-65 -23
q-11 -4 -20 7q-1 1 -1 4q0 6 4 13l126 167l126 -167q6 -11 2 -17q-8 -11 -19 -7l-65 23v-157h147l-23 65q-4 11 7 20q5 4 17 -3z" />
    <glyph glyph-name="eec754" horiz-adv-x="760" 
d="M740 346l-167 -126q-11 -6 -17 -2q-12 8 -7 18l23 66h-147v-149l65 23q11 4 19 -7q4 -7 -2 -17l-126 -167l-126 167q-4 7 -4 12q0 3 1 5q9 11 20 7l65 -23v149h-149l23 -66q5 -10 -7 -18q-6 -4 -17 2l-167 126l167 126q12 7 17 3q11 -9 7 -20l-23 -65h149v157l-65 -23
q-11 -4 -20 7q-1 1 -1 4q0 6 4 13l126 167l126 -167q6 -11 2 -17q-8 -11 -19 -7l-65 23v-157h147l-23 65q-4 11 7 20q5 4 17 -3z" />
  </font>
</defs>
</svg>
